<?xml version="1.0" encoding="UTF-8"?>
<svg xmlns="http://www.w3.org/2000/svg" version="1.1" viewBox="0 0 792 612">
  <defs>
    <style>
      .cls-1 {
        fill: #edc08f;
      }

      .cls-2 {
        fill: #6680be;
      }

      .cls-3 {
        fill: #5d8060;
      }

      .cls-4 {
        fill: #d9e3df;
      }

      .cls-5 {
        fill: #be7c4b;
      }

      .cls-6 {
        fill: #e0b5be;
      }

      .cls-7 {
        fill: #baa03b;
      }

      .cls-8 {
        fill: #e9ecf0;
      }

      .cls-9 {
        fill: #6d7fa2;
      }

      .cls-10 {
        fill: #e0ac50;
      }

      .cls-11 {
        fill: #f0d1e3;
      }

      .cls-12 {
        fill: #f5ded9;
      }

      .cls-13 {
        fill: #ebadc1;
      }

      .cls-14 {
        fill: #69784b;
      }

      .cls-15 {
        fill: #efc369;
      }

      .cls-16 {
        fill: #d77146;
      }

      .cls-17 {
        fill: #c07d5b;
      }

      .cls-18 {
        fill: #7eb19d;
      }

      .cls-19 {
        fill: #f5d9b9;
      }

      .cls-20 {
        fill: #8f7b32;
      }

      .cls-21 {
        fill: #cca6c4;
      }

      .cls-22 {
        fill: #e7c7a1;
      }

      .cls-23 {
        fill: #8e8983;
      }

      .cls-24 {
        fill: #caae79;
      }

      .cls-25 {
        fill: #e39d62;
      }

      .cls-26 {
        fill: #e39574;
      }

      .cls-27 {
        fill: #90a8c0;
      }

      .cls-28 {
        fill: #96b0ca;
      }
    </style>
  </defs>
  <!-- Generator: Adobe Illustrator 28.6.0, SVG Export Plug-In . SVG Version: 1.2.0 Build 709)  -->
  <g>
    <g id="Layer_1">
      <g id="Layer_1-2" data-name="Layer_1">
        <path class="cls-15" d="M439.7,161c3.7.2,7.2,1,10.4.5,3.2-.5,7.1-1.6,9.1-3.9,10.7-12.4,23.7-13.3,37.7-8,4.1,1.5,7.8,5.4,10.6,9.1,4,5.4,7.8,11.2,10.4,17.3,3.2,7.6-.2,15.1-2.6,22.4-.8,2.4-1.5,4.9-2.3,7.4-1.5,4.9-.8,5.9,4.1,7.6,7.8,2.7,14.3,7,18.3,14.6,7.4,14,2.1,28.2-12.8,34.1-4.7,1.8-9.6,2.9-14.3,4.8-1.4.5-2.8,2.3-3.4,3.8-1.1,3-1.6,6.3-2.6,9.5-1.2,4.2-4.3,6.7-8,8.7-9.2,4.9-18.1,3.7-26.9-.8-3.2-1.7-6.5-3.8-10-4.3-3.7-.5-7.7.5-11.7.9-4,.4-8,1-12,.8-6.8-.3-10.9-4.9-14.3-10.2-5.2-7.9-8.5-16.4-7.1-26,.8-5.5,2.6-10.9,4.3-16.3,1-3.2.7-4.7-2.7-6.7-20.3-12-25.3-34.4-7.4-52.8,9-9.3,20.9-12.1,33.2-12.4h.1ZM455.2,224.7c-.4,8.6,10.5,15.4,17.7,14.8,7-.7,15.1-7.8,14.2-21.4-.3-5-4-6.8-7.1-9-2.2-1.6-5.6-3.1-8-2.6-9.3,2.2-17.3,6.2-16.9,18.2h0Z"/>
        <path class="cls-4" d="M616.5,317.5c12.4-.6,20.4,5.8,26.1,16.1,3.1,5.7,6.3,11.2,9.8,16.6.7,1.1,3,1.7,4.6,1.7,4.6,0,9.3-.8,13.8-.3,6.4.8,12.6,2.4,18,6.7,4.6,3.6,8.7,13.1,8.1,18.8-.8,8.5-4.3,15.9-9.3,22.5-5.4,7.1-4.8,14.8-4.7,22.8.1,8.6-.3,17.5-5.2,24.9-2,3-6.1,5.4-9.8,6.2-10.1,2.4-19-1.4-27.1-7.1-3.7-2.6-6.5-2-10.2.1-7.4,4.2-14.9,8.8-23,11.1-5.5,1.5-12.4.4-18.1-1.2-4.4-1.2-9.2-3.6-11.1-9-1.8-5.4-1.2-10.5-.2-15.8.7-3.9,1.2-8,1-11.9-.1-1.5-2.6-2.9-4-4.3-3.7-3.9-7.9-7.4-11.1-11.7-4.1-5.4-5.3-12.2-6.1-18.9-.4-2.9-.8-6.1,0-8.7,2.5-8.9,9.6-13.6,17.3-17.4,3.6-1.8,7.6-3.3,11.6-3.9,4.5-.7,4.5-3.9,5-6.8.8-4.6,1.2-9.3,2-13.9,1.8-10.7,11.2-17.3,22.7-16.5h0ZM647.7,400.2c.5-7-4.8-16.1-11.4-16.8-5.7-.6-10.6.4-15.6,3.5-3.6,2.2-6.2,4.8-6.7,8.6-1.8,11.9,5.3,20.5,17.8,20.7,7.8.1,17.3-7.1,15.9-16.1h0Z"/>
        <path class="cls-12" d="M568.6,253c.4-6,1.7-11.7,4.8-17,2.3-3.8,1.8-8-.8-11.5-3.1-4.2-6.1-8.3-6.2-13.9-.2-6,1.2-11.3,4.5-16.4,4-6.2,8.9-11.2,15.9-13.3,5-1.5,10.3-1.8,15.5-2.6,2.9-.4,5.9,0,8.6-1,1.7-.7,2.7-3.2,3.7-4.9,1.8-2.8,2.8-6.4,5.2-8.4,4.9-4.2,10.4-8.2,17.4-7.1,3.9.6,7.8,2.2,11.4,4.1,4.3,2.3,8.3,5.3,9,10.8,4.2,1.1,4.5,5.1,5.5,8.3,1.1,3.6,1.8,7.4,2.2,11.2.4,3.1-.3,6.3,0,9.3.1,1,1.9,2.3,3.1,2.5,4.3.8,8.9.9,13.1,2,5.7,1.4,10.5,4.5,14.3,9.3,3.9,4.9,6.5,9.9,6.1,16.3-.3,3.9-1.5,6.9-5.3,8.8-2.1,1.1-3.8,3-5.8,4.4-3.6,2.5-7.4,4.7-10.7,7.6-1.6,1.4-3,4-3,6.2-.4,8-1.4,15.6-5.9,22.5-5.1,7.9-11.9,13.4-21,15.7-4.1,1.1-7.9-.7-10.9-3.3-4.9-4.3-9.8-8.6-14.2-13.3-3.6-3.9-7.5-2.3-11.4-1.7-8.1,1.4-16.1,3.6-24.2,4.5-2.6.3-5.4-2.4-8.1-3.6-4.1-1.7-5.5-5.7-7.6-8.9-3.3-4.9-5.8-10.4-5.2-16.7h0ZM616.2,229.5c1.1,3.4.1,7.4,4.3,11.2,6.1,5.5,9.6,7.3,16.9,3.6.7-.4,1.5-.6,2-1.1,2.3-2.7,5.3-5.1,6.4-8.3,2.1-5.8-1.5-10.8-4.6-15.2-1.5-2-4.6-3.3-7.2-3.9-6.2-1.5-11.1,2-16.1,4.9-.4.2-.9.8-1,1.3-.3,2.3-.5,4.7-.7,7.6h0Z"/>
        <path class="cls-1" d="M624.6,125.4c-.1,0-.3,0-.4,0-2.5.1-4.8.6-5.4,3.5h0c-2.4,1-4.9,1.8-7.2,3-.8.5-1.2,1.8-1.7,2.8h0c-5,.9-10,1.8-15,2.7-4.8.8-14.3-4.8-15.9-9.3-1-2.6-2.3-5.1-3.5-7.6-2.7-5.7-3-11.5-1.1-17.4,1.1-3.3.7-4.6-2.5-5.9-2-.8-3.6-3-5.5-3.2-11.4-1-17-9.5-22.4-17.6-3.7-5.5-3-12.6-1.4-19.1h0c.3-.2.8-.3,1-.6,1.9-3.3,3.7-6.7,5.7-9.8.5-.8,2.3-.7,2.9-1.4,3.3-4.2,8.5-4.4,13-5.5,4.6-1.2,9.6-.7,14.5-1.2,3.6-.4,5.8-3.1,5.7-6.2s-.8-6.5-.2-9.5c.7-3.2,1.9-6.6,4-9,2.7-3.2,6.4-5.9,9.9-8.2,2.9-1.9,6.2-3.5,9.6-4.2,3.3-.7,6.8-.2,10.3-.2h0c.6.7,1.1,1.5,1.9,2,1,.7,2.4.8,3.3,1.6,3.4,2.9,6.4,6.2,10,8.9,4.6,3.4,5.6,8.4,6.6,13.3.4,2.1,1,3,3.2,2.7h0c1,2.3,2.1,4.6,4.3.8.2-.3.6-.6.9-.7,3.9-.7,7.9-1.2,11.8-1.8,1-.1,2.1,0,2.9-.4,4.8-2.6,9.6-1.1,14.3-.4,5.2.8,8.9,3.5,10.4,8.7,0,.2.2.4.3.5,3,4.6,4.2,9.8,2.4,14.9-1.7,4.8-4.6,9.1-7.2,13.4-1.8,3-4.6,5.7-5.9,8.9-1.9,4.7,2.9,8,3.7,12.3,1.4,7,3.8,14-1.1,20.6-.2.4-.2,1-.4,1.4-.7,1.5-1.2,3.4-2.3,4.5-2.9,2.7-5.9,4.6-9.9,5.9-5.1,1.7-9.9,1.5-14.8,1-5.5-.7-11.1-1.9-16.6-2.6-1.4-.2-3.2-.6-4.1,1.5-.4,1-2.2,1.2-3.1,2.1-1.6,1.4-3,3-4.5,4.6l-.3.2ZM598.4,71c-.3.1-.7.2-1,.4,1.5,3.8,1.9,8.7,4.6,11.2,4,3.7,9.4,6.7,14.7,8.1,4.8,1.2,10.9,1.2,15.3-.8,9-4,12.3-12.3,10.8-22-1.7-10.5-5.3-14.1-15.9-16.8-5.3-1.3-10.5-.5-15.6,1.5-4.9,1.9-14.5,12.3-13.1,18.3h0Z"/>
        <path class="cls-7" d="M320.5,450.6c-11.2-.4-20.2-4.3-26.8-13.7-4.2-5.9-4.3-5.5-10.9-2.7-6.5,2.7-13.1,6-20,6.9-15.6,2.1-25.8-10.6-21.6-26,.8-3,1.8-6.1,2.9-9,.8-2.1.4-3.5-1.1-5.2-4.4-5.3-9.5-10.4-12.4-16.5-8.1-16.7-2.3-25,13.9-29.1,3.2-.8,6.7-.7,10-.4,2.9.2,4.3-.6,5.4-3.3,2.5-7,6.7-13,12-18.1,7.9-7.6,18-7.2,25.6,1.1,5.9,6.5,8.7,14.3,9.7,22.8q.7,5.5,5.4,2.5c5.8-3.7,11.3-8.1,19-6.6,9,1.8,18.1,3.6,22.5,12.8,2.1,4.5,3.2,9.6,3.8,14.5.7,5.6-2.9,9.6-6.7,13.3-2.9,2.7-5.8,5.4-8.4,8.4-.8,1-1.1,2.9-.7,4.2,2.8,8.6,5.5,17.1,4.4,26.4-1,8.2-4.5,12.9-12.4,15.1-4.3,1.2-8.9,1.8-13.3,2.7h0ZM295.4,407.9c9.6.4,13.9-5.5,13.9-14.4s-5.3-14.3-12.4-13.8c-8.2.5-14.4,5.8-14.9,16-.3,6.5,6.2,12.3,13.4,12.3h0Z"/>
        <path class="cls-3" d="M143.7,518.9c-.3-3-.2-6.2-1-9.1-2.4-9.2,2-13.3,9.8-17.1,7.3-3.6,15.2-3.5,22.5-.7,2.4.9,4.5,4.6,5.1,7.3,1,4.2.9,8.8.7,13.1-.4,8.6-.6,8.4,7.3,5.3,6.2-2.4,12.6-4.9,19.2-6.1,4.8-.8,9.9.2,14.8,1.2,1.7.4,3.5,2.9,4.2,4.9,3,7.7,1.7,15.1-3.5,21.5-3.9,4.8-8.4,9.2-12.4,14-.7.8-.8,2.7-.4,3.6,3.3,6.2,7.9,11.9,9.9,18.4,1.8,5.9,1.4,12.7,1.1,19.1-.3,5.4-4.8,8.6-11,8.7-13,.1-24.8-3.5-34.7-12.3-1.7-1.5-2.3-1.2-3.4.6-6,9.9-15.6,15.3-26,19.2-2.3.8-5.6.3-8-.7-14.1-6.2-20.9-24.3-14.7-38.4.7-1.6,1.3-3.4,2.3-4.8,2.4-3.5,1.1-4.7-2.6-5.9-8.6-3-17.2-6.2-23.9-12.8-10.7-10.6-8.2-25.6,5.4-32.4,9.6-4.8,19.2-3.6,28.9-.2,3.3,1.2,6.5,2.7,9.8,4.1.2.1.3.2.5.3,0-.2,0-.5,0-.8h0ZM179,564.3c0,0,.1,0,.2.1,0,0-.2,0-.2-.1.3-.8.5-1.7,1-2.4,3.8-4.8,7.1-9.9,3.7-16.1-1.5-2.8-3.8-6.2-6.5-7.3-6.5-2.6-13.3-2.3-19.4,1.8-.7.5-2.1,1-2.1,1.5-.4,5.5-1.1,11.1-.5,16.5.4,3.7,10.7,8.8,14.9,8.4,1,0,2.1.4,3,0,2.1-.7,4-1.7,6-2.6h0Z"/>
        <path class="cls-5" d="M196.3,23.9c.2,3.9.3,8.5.9,13,.2,1.2,2,2.1,3,3.2,0,0,.2,0,.3,0,14.6,2.6,21.4,9.7,23.6,24.3,1,6.9-3.9,14.6-11.9,18.5-2.7,1.3-5.4,2.7-8.3,3.3-3.1.7-3.6,2.6-4,5.2-.8,5.4-1.5,10.8-3.2,15.9-2.7,8.6-12.3,13-23,11.8-7.6-.9-13.5-4.6-18.4-10.3-5.8-6.7-5.8-6.6-13.5-2.4-2.3,1.2-4.7,2.5-7.2,3.5-16.9,6.8-34.4-6.1-33.1-24.3.5-6.7,2.3-13,5.4-19,.8-1.5.8-4,.2-5.8-1.2-3.9-3.1-7.7-4.6-11.6-3.9-10,.9-20.7,7.3-27.2,3.9-4,9-3.7,14-3,5.1.8,10.2,1.7,15.2,2.9,4.3,1,7.9,0,10.8-3,3.5-3.6,6.7-7.3,10.1-10.8,7.8-8.1,13.6-9.6,22.5-6,9.8,4,14,10.4,13.9,21.7h0ZM151.7,60.5c0,7.1,7.3,14.7,14.5,14.9,6.4.2,12.1-5.6,12.3-12.4.1-6.8-6-14.5-11.8-14.3-8.3.3-14.5,4.9-14.9,11.8h0Z"/>
        <path class="cls-28" d="M651.9,590c-.4,0-.8,0-1.2-.1q-2.4-1.3-3.5,2h0c-1.1.4-2.4.4-3.3,1.1-.8.5-1,1.7-1.6,2.5-1.9,2.6-3.9,5.2-5.8,7.7h0c-.7.3-1.5.4-2,.9-4,4.2-8.9,7.2-14.6,6.2-5.5-.9-11.3-1.5-15.9-5.5-1.4-1.2-1.6-3.9-4.9-3.9s-4.1-3.8-4.9-6.3c-1.6-4.9-2.3-10.1-3.6-15-.4-1.4-1.8-2.5-2.7-3.8v-.2c-1.1-1-2-2.7-3-2.9-4.2-.4-7-3.1-9.8-5.7-1.7-1.5-3.6-2.9-4.6-4.8-1.1-2-1.2-4.6-1.6-6.9s.4-1.6.5-2.4c0-.4.2-1.1,0-1.2-1.2-.8-1.7-7-.4-7.3,2.6-.5,1.4-1.7,1-3-.2-.5-.2-1.4,0-1.5,2.4-1.3,1.2-5.8,5.2-5.6.1,0,.2-.7.4-1,1.1-1.4,1.9-3.2,3.3-4.2,3.5-2.6,7.3-4.8,10.9-7.1.7-.4,1.2-1.1,1.5-1.7,1.2-2-.7-5.1,2.2-6.5,0,0,0-.6-.2-.8-3.7-3.2-1.5-7.6-.9-10.5,1.3-5.7,4.5-11.1,11.7-11.6.7,0,1.3-1.2,2-1.9.5-.5,1.1-1.5,1.5-1.5,3.9.2,8.1-.2,11.7,1,4.7,1.5,9.2,3.9,13.4,6.5,2.6,1.7,4.6,4.5,6.8,6.7s2.3,2.3,3.5,3.3h0c-.2.7-.9,2-.7,2.1,2.4,1.8,4.9,3.9,7.6,5.1,1,.4,2.9-1.2,4.3-1.9,2.6-1.4,5.2-2.8,7.9-4.1,3.9-2,8.3-1.7,12.4-1.6,2.4,0,4.9,1.8,7.3,2.9,0,0-.1.4-.1.5.2.6.4,1.2.6,1.8,0,0,.2,0,.2.1,0,0-.1-.1-.2-.2-.2-.6-.4-1.2-.6-1.8,7,1.9,10.7,6.5,11.2,13.7h-.2l-.9.9h0c-.7,1.1-1.5,3-2.2,3-2.6,0-1.5,1-.9,2.1h0c-1.4,3.7-2.7,7.4-4.2,10.9-.2.5-1.1.6-1.7.9-.2-.1-.4-.3-.6-.4,0,0-.1.1-.1.2.2,0,.5.2.7.2.2.4.7,1,.5,1.1-2.3,3.4-1.5,8.3,1.8,10.8h0c3.7,1.4,2.4,5.5,4.3,8.1,1,1.4,1.5,3.3,1.5,5-.2,6.3-.4,12.6-3.3,18.4h0c-2,2-4,4-5.9,6.1-.2.2,0,.6-.1.8-.5.7-1.1,2-1.7,1.9-6.5-.5-13-1.1-19.6-1.6-2.8-.2-5.6,0-8.4,0h0ZM571.6,551.9c0,0,0-.2.1-.2,0,0,0,.2-.1.2,0,0,0,.2-.1.2,0,0,0-.1.1-.2ZM641.3,568.7c-.5.4-.8.7-1.1,1,0,0,0,.3.1.4.5-.2,1-.5,1.4-.7-.1-.2-.2-.4-1.6,1.5-.2-.3-.2-.4-.3-.5-.3.4-.6.7-.9,1.1,0,0,.3.2.4.4.3-.4.5-.7,2-3.2h0ZM635.3,571.5c-.2-.3-.4-.6-.5-.9l-.4.4c.3.2.6.4.9.5-.2,2,.7,4.3-2.4,5-.5,0-.7,1.3-1,2,.7.1,1.4.4,2,.3,1.6-.2,3.2-.5,4.7-1.1.3-.1.5-1.7.4-1.7-3.7-1.4-1.7-3.7-1-5.9.1-.4.2-1.1.1-1.1-.7-.2-1.4-.2-2-.3.1.4.4.8.2,1.1-.2.6-.7,1.1-1,1.7ZM647.7,553c1.2-4.8.5-8.9-3.1-12.7-5-5.3-13.7-5.6-19-2.3-5.8,3.6-7.4,8.9-4.9,14.8,1.7,4,4.2,8,9.3,9,3,.6,6,1.4,9,2.2,0,1.1,0,2.1-.1,3.2.2,0,.7-.1.7-.2,0-.8-.1-1.7-.2-2.5,0-.2,0-.4-.1-.6v-.9c4.3-.1,7.8-4.3,8.4-10.2h0ZM651.2,579.6c-.8-.8-1.8-1.8-2.8-2.6-.2-.1-.7.2-1.1.2,2.4.5,1,2.9,1.9,4,.2.2,1,.5,1,.4.3-.4.5-1,1-2.1h0ZM644.5,578.5c-.6-.4-1.2-1.1-1.4-1-.8.4-1.4,1.1-2,1.7.4.3.8,1,1,.9.8-.4,1.5-1,2.5-1.5h0ZM642,573.7c-1.1-.2-1.5-.5-1.8-.4-.6.3-1,.8-1.5,1.2.2.2.4.6.5.5.8-.3,1.5-.7,2.9-1.3h0ZM653.9,577.5c-.9.6-1.1.8-1.4.9.4.4.8.8,1.3,1,.1,0,.7-.4.7-.4-.2-.5-.4-1-.7-1.5h0ZM571.2,548.2c-.4.2-.6.3-.8.4.3.2.5.5.8.6.2,0,.4-.2.7-.3l-.7-.7h0ZM658.3,582.2c-.5-.3-.7-.5-.8-.5-.3,0-.6.2-.9.4.2.2.4.5.5.5.3,0,.6-.2,1.2-.4h0ZM643.3,565.4c-.5-.2-.5-.2-.7.3.5.2.5.2.7-.3ZM629.5,581.9c-.3-.2-.5-.4-.7-.5-.1,0-.3.1-.5.2.2.2.4.4.5.5.1,0,.4-.1.6-.2h0ZM640.1,580.4c-.1-.2-.2-.4-.3-.6-.2.6-.3.7,0,1.2.1-.2.2-.5.4-.7h0ZM676.2,508.8c.2,0,.3-.2.5-.2-.4-.5-.5-.3-.5.2ZM645.8,585.6c-.2,0-.3-.1-.5-.2,0,.1-.1.5.1.5s.2-.2.4-.4h0ZM577.1,533.5c-.2-.7-.4-.4-.4.1.1,0,.3,0,.4-.1ZM687.2,573.4c.2.1.3.2.4.3.1-.6,0-.7-.4-.3ZM572.1,541.5c0,.1-.3.4-.1.5s.4,0,.5-.2c-.1-.1-.2-.2-.4-.4h0ZM634,567.5c-.1,0-.2,0-.4-.1-.1.3,0,.4.2.7,0-.2.1-.4.2-.5h0ZM574.7,564c0,0-.2,0-.2,0,0,.2,0,.2.2.3,0,0,0-.1,0-.2h0ZM569.9,545.5c-.2,0-.2,0-.2.2.2,0,.2,0,.2-.2ZM648.3,584.4c0,0,.1,0,.2-.1q-.2-.2-.4,0c0,0,.1.1.2.2h0ZM631.6,582.6c0,0,.1,0,.2,0,0-.2,0-.2-.1-.3,0,0,0,.1,0,.2h0ZM678.9,508.2h-.4q.2.2.4,0ZM642.1,581.5c0,0,0,.1,0,.2q.2,0,.3-.1c0,0-.1,0-.2,0h0ZM657.1,580.6v-.2q-.1,0-.2.2c0,0,.1,0,.2,0h0ZM631,580.4c0,0,0-.1-.1-.2q-.2.2,0,.4l.2-.2h0Z"/>
        <path class="cls-20" d="M162.1,466.1c-12.6,0-21.2-4.9-25.5-16.9-2.1-5.8-2.4-6-8.6-4.4-10.6,2.7-19.3-1.3-27-7.9-6.2-5.3-7.6-12.4-5.1-20,1.4-4.4,3.5-8.6,4.9-13,.4-1.1.2-2.9-.5-3.9-3.9-6.1-6.5-12.4-4.6-19.6.8-3.2,2.7-6.7,5.2-8.6,4.5-3.5,9.7-6.1,14.9-8.4,4.7-2.1,9.6-1.1,14,1.4,3.1,1.8,5.4,1.3,8.1-.8,4.2-3.3,8.3-6.8,12.9-9.5,11.7-6.5,27-.5,32,12.5,1.6,4.2,2.3,8.7,3.2,13.2.8,4.1,3.5,6.4,7.1,8.1,3.9,1.8,7.7,3.9,11.2,6.4,5.7,4,5.7,9.9,4.3,15.8-1.8,8.4-5.9,15.6-14.1,19.5-3.7,1.7-4.9,4.2-5.4,8-1,7.3-3.4,14.2-7.9,20.2-4.9,6.5-11.8,8.2-19.1,7.9v.2ZM144.8,414.4c6.8,0,13.1-5.1,13.3-10.5.2-7.7-5.9-15-13-14.6-7.6.4-13.6,6.2-13.6,14.2s5.9,10.9,13.4,10.9h0Z"/>
        <path class="cls-26" d="M516.9,62.2c.1,8.1-2.3,14.9-9.2,19.9-3.4,2.4-6.7,5-9.6,7.9-1.1,1.1-1.4,3.6-1.1,5.2,1.9,9.4-3.9,20.9-12.6,23.3-7.7,2.1-14.9,0-21.6-4-5.4-3.2-9.1-7.9-12-13.3-1.6-3-3.5-3.3-6.3-1.7-2.1,1.2-4.5,2.1-6.7,3.2-7.8,3.5-19,1.3-24.7-4.8-3.5-3.7-4.3-8.5-2.3-13.1,1.8-4,3.3-8,5.3-11.9,1.8-3.5,1.3-6.4-.8-9.6-6.1-9.2-6.5-19.2-2.2-29.1,2.2-5,5.2-9.9,11.8-9.6,3.8.2,7.8.6,11.4,1.8,7.4,2.5,12.6,1,17-5.7,2.7-4,6.5-7.8,10.6-10.1,8.4-4.5,16.1-.7,23.1,4.3,6.1,4.3,9,10.6,9.5,18,.4,6.1,1.7,7.8,7.3,9.5,8.1,2.5,12.8,9.8,12.9,19.9h.1ZM447.4,64.7c1,2.6,1.2,6.5,3,7.6,4.3,2.4,9,5.8,14.5,2.6,2.1-1.2,4.2-2.4,6.1-3.7.4-.2.4-1,.4-1.5.2-1.5.7-3.1.6-4.6-.2-3.7.2-7.8-4.1-9.9-2.8-1.3-5.7-2.6-8.4-3.8-1-.4-2.3-1.2-3.2-.9-5.2,2-8.9,8.4-9,14.4h0Z"/>
        <path class="cls-17" d="M296.2,132.6c-.8,0-1.5-.2-2.3-.2-2.6-.8-5.2-1.6-7.7-2.4h0c-.2-.2-.5-.4-.7-.5-.4-.2-.8-.4-1.2-.5-.4-.2-.8-.5-1.1-.7-1-.8-2-1.7-3-2.4-7.8-5.1-8-10.2-4-18.7,1.8-3.8,4.7-7.1,7.2-10.5,1.8-2.4,1.6-3.5-1.7-4.2-7.4-1.6-14.8-3.6-22.1-5.5-5.5-1.4-9.7-4.9-12.8-9.5-1-1.5-1.4-3.9-1-5.6,1.5-8,5.8-13.9,13.6-16.5,6.2-2.1,12.5-3.7,18.9-5.4,2.2-.5,2.9-1.5,2.8-3.6,0-5.4-.2-10.7.4-16,1-8.6,6.1-15.4,11.5-21.7,2.9-3.3,8.1-3.5,12.7-.8,10.6,6.5,18.5,15.4,22.4,27.5,1,3.1,1.9,4.3,5.4,2.7,10.1-4.7,20.6-3.7,30.9-1.2,6.9,1.7,8.9,8.5,9.8,14.8,2.1,13.7-2.3,24.7-14.6,32-5.9,3.5-5.8,3.6-1.8,9.3,4.7,6.8,9.3,13.6,11.7,21.9,4.7,16.8-9.5,25.6-21.4,24.6-11.2-.9-19.1-7.3-25.6-15.9-1.2-1.7-2.3-3.5-3.5-5.2-.2-.5-.4-1.1-.7-1.6-.5-.8-1.2-1.4-1.8-2.1-.5.7-1.1,1.4-1.4,2.1-1.3,2.9-2.6,5.8-3.9,8.7h0c-1.7,1.9-3.3,3.9-5,5.8-.1,0-.2,0-.4.2-3.2.4-6.3.9-9.5,1.3h0ZM373.1,58.2c-.2-2.3-.2-4.6-.8-6.7-1.6-5.4-3.3-11.4-9.5-12.9-6.1-1.4-12.6-1.7-18.9-1.5-3.8.1-7.6,2-11.4,3-3.2.8-5.2-.4-6.7-3.6-2.3-4.9-4.7-9.8-7.7-14.2-2.1-3.2-5.1-6-8-8.7-2.1-2-4.5-3.9-7.1-4.9-6.2-2.1-11.7,1.4-14.8,8.6-.7,1.8-2.2,3.2-2.9,4.9-2.9,6.7-3.5,13.6-2.9,20.9.5,6.7-.6,8.5-4.9,9.4-2.4.5-4.8.8-7.2,1.4-6.1,1.6-12.8,1.9-16.9,7.9-1.7,2.6-3.6,5.1-5.5,7.6-2,2.6-1.1,5,.6,7.2.7,1,1.8,1.5,2.8,2.3,2.4,1.9,4.6,4.8,7.3,5.6,8.3,2.6,16.8,4.4,25.3,6.4,2.3.5,2.7,2,1.9,3.6-2.1,4.1-4.4,8.3-7.1,12-1.9,2.6-4.5,9-3.1,11.4,1.5,2.5,3.4,5.1,5.8,6.7,5.7,3.6,11.7,7.3,18.6,5.9,3.6-.7,7.6-2.1,9.6-6.1,1.6-3.2,3.2-6.5,4.9-9.6.4-.7,1.4-1.6,1.9-1.5,1.2.4,2.9,1,3.3,1.9,3.6,7.6,8.1,14.2,16.5,17.1.5.2.9.8,1.4,1.1,1.7,1.1,3.2,2.6,5,3.1,2.7.7,5.6.7,8.4.7,7.4,0,12.1-4.5,15.9-10.1.4-.6.4-1.5.6-2.3,1.4-6.7-1-12.7-3.8-18.3-2.9-5.6-6.7-10.6-10-15.9-2.2-3.6-1.5-5.2,2.1-7.3,3.2-1.8,7.2-3.3,9.2-6.1,3.9-5.6,8.3-11.3,8-18.9v.2Z"/>
        <path class="cls-6" d="M315.2,182.4c3.8-7.7,14-12.7,22.7-11.1,3.1.6,6.2,1.3,9.2,2.1,7.3,2,10.2,8.1,13.2,14.3.8,1.7,1.5,3.5,2.3,5.1,2.3,4.6,1.8,9.3.8,14.1-.9,3.8-1.2,7.7-1.5,11.7,0,.8,1,1.8,1.6,2.5,4.4,4.5,9,8.8,13.3,13.4,2.9,3.1,3.9,6.6,2.3,10.9-2.4,6.2-2.4,13.3-7.3,18.4-1.8,1.9-4.3,3.1-6.2,4.9-2.1,1.9-4.3,3.9-5.6,6.4-2.7,5.1-4,11.2-7.6,15.5-8.1,9.6-18.3,16.6-31.7,15.4-6.8-.6-11.6-5.5-15.3-11-1.4-2.1-2.4-4.6-4-6.4-1.4-1.5-3.6-3-5.5-3.1-9.2-.4-18-1.8-25.2-8-6.8-5.9-10.6-13.6-8.7-22.5,1.5-6.8,4.5-13.4,7.2-19.9,1.4-3.2,1.4-5.7-.4-8.8-4.2-7.3-8.1-14.9-7.4-23.7,1-10.6,6.6-18.5,15.6-24.1,6.5-4.1,13.2-2.6,20-.7,6.1,1.7,12.2,3.1,18.3,4.6-.4.4-.8.8-1.2,1.2-4.9-1.1-9.9-2.2-14.8-3.2-2.9-.6-6-.7-8.8-1.7-3.9-1.4-11.6-.1-14.5,2.9-1.7,1.7-2.8,4.3-4.8,5.4-5.5,2.9-5.2,8.8-7.5,13.3-1.1,2.3-.7,5.7,0,8.3,1.2,4.6.9,10.3,6.5,12.7.4.2.6.8.7,1.2.5,2.6,1,5.1,1.2,7.6.1,1.5.2,3.2-.4,4.6-1.4,3.4-3.5,6.5-4.8,10-2,5.1-4.2,10.1-3.5,16,.9,7,4.8,12.4,9.6,16.1,5.7,4.3,12.7,7.2,20.6,6.2,3.2-.4,7.4-.7,9,3.9.4,1,.4,2.2,1,2.9,3.3,3.5,6.7,6.9,10.1,10.4,5.7,5.9,13.1,4.9,19,2.4,6.8-2.9,12.6-8.4,18.6-13.2,1.6-1.2,2.7-3.6,3.5-5.6,1.1-2.7,1.6-5.7,2.4-8.4.4-1.5.4-3.5,1.4-4.3,3.3-2.9,6.8-5.7,10.6-8,3.3-2.1,4.9-4.9,4-8.4-.1-.4,0-.9.1-1.3,3.1,1,2-1.7,2.5-2.9,3.2-7.5,2.1-12.8-3.9-18.3-1.3-1.2-2.6-2.4-3.9-3.7-2.4-2.6-4.5-5.5-7.2-7.6-2.7-2.2-3.6-5.1-1.5-8,3-4.3,3.1-9.2,3-14.3-.1-4.8-3.3-8.2-4.9-12.3-1.8-4.6-4.8-9-9.9-10.7-3.5-1.2-6.8-2.5-10.8-2.5-6.5,0-11.4,2.6-16.1,6.7-1.4,1.2-2.3,3.9-5.1,2.8v-.2Z"/>
        <path class="cls-22" d="M542.5,57.5c-1.6,6.5-2.2,13.6,1.4,19.1,5.4,8,11,16.6,22.4,17.6,1.9.2,3.5,2.4,5.5,3.2,3.2,1.2,3.6,2.6,2.5,5.9-1.9,5.8-1.6,11.7,1.1,17.4,1.2,2.5,2.5,4.9,3.5,7.6,1.5,4.4,11.2,10.1,15.9,9.3,5-.9,10-1.8,15-2.7-3.5,1.5-6.7,3.6-10.3,4.3-9.8,2.1-19.1-2.7-23-12-2.3-5.4-3.6-11.1-5.2-16.7-.4-1.3.3-2.9.5-4.3.3-.3.6-.6,1-.9-.2-.2-.5-.4-.8-.7,1.2-4.1-1.1-5.4-4.6-6.7-7.3-2.8-14-6.4-19.6-12.4-7.9-8.5-9.8-22.2-5.7-32.7,3.3-8.5,10.4-11.9,18.8-13.3,6.7-1.1,13.4-2.3,20-3.7.6-.1,1.2-1.5,1.3-2.4.3-3.5.4-7.1.5-10.6.2-6.4,4.3-10.6,8.6-14.5,5.5-4.9,12.1-7.9,19.5-8.4,2.6-.2,5.2,1,7.7,1.4-3.5,0-7-.5-10.3.2-3.3.8-6.7,2.4-9.6,4.2-3.6,2.3-7.2,5-9.9,8.2-2.1,2.4-3.3,5.8-4,9-.6,3,0,6.3.2,9.5.1,3.2-2.1,5.8-5.7,6.2-4.8.5-9.8,0-14.5,1.2-4.5,1.1-9.6,1.3-13,5.5-.6.8-2.3.7-2.9,1.4-2.1,3.2-3.8,6.5-5.7,9.8-.2.3-.6.4-1,.6,0-.4-.1-.8-.1-1.1-.1,0-.2.1-.4.2.2.3.4.7.5,1h0Z"/>
        <path class="cls-22" d="M624.6,125.4c1.5-1.5,2.9-3.2,4.5-4.6,1-.8,2.7-1.1,3.1-2.1,1-2.1,2.7-1.7,4.1-1.5,5.5.7,11.1,1.9,16.6,2.6,4.9.6,9.7.7,14.8-1,4-1.3,7.1-3.3,9.9-5.9,1.1-1.1,1.6-2.9,2.3-4.5.2-.4.1-1,.4-1.4,4.9-6.7,2.5-13.6,1.1-20.6-.8-4.3-5.6-7.6-3.7-12.3,1.3-3.2,4.2-5.8,5.9-8.9,2.6-4.4,5.5-8.7,7.2-13.4,1.8-5.1.7-10.3-2.4-14.9-.1-.2-.2-.4-.3-.5-1.5-5.2-5.2-8-10.4-8.7-4.8-.7-9.6-2.2-14.3.4-.8.4-1.9.2-2.9.4-3.9.6-7.9,1.2-11.8,1.8-.4,0-.7.4-.9.7-2.2,3.8-3.2,1.5-4.3-.8,5.6-1.4,11.2-3.4,16.8-4.1,6.3-.8,12.8-.8,19.1-.2,6.2.6,11.7,8.8,13.5,16.5,1.9,8.1-1.7,14.5-5.5,20.8-2.2,3.7-5.1,7-7.4,10.6-.7,1.1-.7,3-.2,4.3,2.3,6.6,5.1,12.9,4.8,20.2-.5,15.5-12.8,26-28.1,23.7-5.7-.8-11.3-1.7-17-2.4-3.1-.4-5.9-.2-8.6,2.1-1.8,1.7-4.3,2.6-6.5,3.9h.1Z"/>
        <path class="cls-8" d="M428.2,582.2c-1.4-1.3-3.2-2.4-4-4-2.8-5.1-.7-10.4.2-15.5.5-2.6,1.1-5.2,2-7.7,1-2.8,1.1-4.9-.8-7.9-3.5-5.4-6.2-11.4-8.3-17.4-1.4-4.1-.5-8.5,2.4-12.3,1.7-2.1,2.4-4.7,4.9-6.6,4.7-3.5,9.9-4.4,15.3-4.7,5.6-.3,10.9-1.1,14.9-5.2,3.1-3.2,6.1-6.5,8.4-10.2,3.2-5.1,7.9-7.6,13-9.9,5.8-2.5,14.5,0,19.2,4.3,2.7,2.4,4.4,5.2,6.5,7.8,1.2,1.5,1.8,3.6,2.5,5.5,1,2.6,1.4,5.5,3,7.6,1,1.4,3.5,1.8,5.4,2.2,6.5,1.4,13.1,2.7,18.1,7.6.4.4.4,1.1.5,1.6-.2.2-.4.4-.5.5-1.7-1.2-3.3-2.4-5.1-3.5-6.4-4-13.7-4.5-20.9-5.5-.5-9.6-4.6-17.4-12.1-23.4-6.9-5.7-15.5-5.9-22.1.2-4.9,4.6-8.9,9.9-13.3,15-2.9,3.9-6.2,6.9-11.7,6.7-2.9-.2-5.7.4-8.6.7-18.1,1.7-22.4,17.3-15.7,30,2.6,3.7,5.3,7.4,7.9,11.2-.4,1.5-.8,3-1.1,4.5-3,9.4-7.3,18.9,0,28.3l-.4.4h0Z"/>
        <path class="cls-8" d="M531.8,517.3c2.9.7,4.5,2.6,5.8,5.3,2.8,6.2,4.9,12.6,4.1,19.4-.7,5.9-4.8,9.8-9.5,12.6-4.3,2.6-9,4.6-13.6,6.8-1.8.8-2.3,1.7-2,3.9.6,4.5,1.4,9.2.6,13.5-.8,3.7-3.6,7.1-5.7,10.6-.8,1.4-1.4,3.4-2.7,4-3.6,1.8-7.5,3.7-11.4,4.4-8.5,1.4-16.4-.7-22.7-6.8-2.1-2.1-3.7-4.8-5.4-7.3-1.1-1.8-2.6-3.8-4.5-2-5.9,5.6-13.3,7.7-21,9-6.7,1.1-13.3-2-15.6-8.5l.4-.4c5.5,7.9,12.8,9.4,21.3,5.9,4.9-2,9.5-4.6,14.1-7.4,2.5-1.5,4-1.7,5.6,1.1,1,1.8,2.4,3.3,3.6,5,.8,1,1.7,2,2.6,2.9,7.3,7.6,19.6,9.8,28,5.1,10.1-5.8,14.2-16.1,10.8-27.2-.3-1-1-2.1-.9-3.1.1-1.1.7-2.7,1.5-3.2,3.4-2,7-3.6,10.6-5.3.4-.2.8-.4,1.2-.6,9.6-3.5,13.9-10.4,12.7-19.7-.8-6.8-3.8-12.6-8.6-17.4.2-.2.4-.4.5-.5h.1Z"/>
        <path class="cls-27" d="M643.1,504.8c-1.2-1.1-2.4-2.2-3.5-3.3-2.3-2.3-4.2-5.1-6.8-6.7-4.2-2.6-8.7-5-13.4-6.5-3.7-1.1-7.8-.8-11.7-1-.5,0-1,1-1.5,1.5s-1.3,1.8-2,1.9c-7.3.5-10.4,5.9-11.7,11.6-.7,3-2.9,7.3.9,10.5.2.2.3.7.2.8-2.9,1.5-1,4.5-2.2,6.5-.4.7-1,1.3-1.5,1.7-3.6,2.4-7.4,4.6-10.9,7.1-1.4,1-2.2,2.7-3.3,4.2-.2.3-.3,1-.4,1-4-.2-2.9,4.3-5.2,5.6-.2.1-.2,1,0,1.5.4,1.3,1.5,2.5-1,3-1.3.2-.9,6.5.4,7.3.2.1.1.8,0,1.2-.1.8-.6,1.7-.5,2.4.4,2.3.6,4.9,1.6,6.9,1,1.8,2.9,3.3,4.6,4.8,2.9,2.6,5.6,5.2,9.8,5.7,1.1.1,2,1.8,2.9,2.9-7.9-2-14.9-4.9-18.9-12.7-4.4-8.4-3.1-26.5,6.4-32.8,4.8-3.2,9.2-7.1,13.6-10.9,1-.8,1.7-2.9,1.3-4.2-3.3-12.3,4.7-26.5,17-28.6,10.8-1.8,25.8,3.3,33.4,14,1,1.4,1.7,3,2.6,4.6h0Z"/>
        <path class="cls-27" d="M685.2,551.2c-3.3-2.4-4.1-7.4-1.8-10.8.1-.2-.4-.7-.5-1.1h0c.6-.4,1.5-.5,1.7-1,1.5-3.6,2.9-7.3,4.2-10.9.3-.2.6-.4.9-.5l-.4-.4c-.2.3-.4.6-.5.9-.6-1.1-1.7-2.1.9-2.1s1.5-2,2.2-3c.1.7.5,1.5.3,2.1-2.3,5.5-4.5,10.9-7.1,16.2-1.3,2.6-1.5,4.9.4,7.1,6.5,7.6,7.7,16.7,6.7,26.1-.8,7.6-4.5,13.9-10.6,18.4-1.4,1-3.5,1-5.3,1.5,0-.2-.1-.3-.2-.5-.1.2-.3.3-.4.5-7.9-1.3-15.9-2.6-23.8-3.9,2.8,0,5.6-.2,8.4,0,6.5.5,13,1.2,19.6,1.6.5,0,1.1-1.2,1.7-1.9.1-.2,0-.7.1-.8,2-2,4-4,5.9-6.1,0,0,.2,0,.2.1,0,0-.1,0-.2-.1,3-5.8,3.1-12.1,3.3-18.4,0-1.7-.5-3.7-1.5-5-1.8-2.6-.5-6.7-4.3-8.1,0,0,0-.2.1-.2,0,0,0,.1-.1.2h.1ZM683.7,589.1h-.4q.2.2.4,0Z"/>
        <path class="cls-27" d="M587.8,575.6c1,1.2,2.4,2.4,2.7,3.8,1.3,5,2,10.2,3.6,15,.8,2.5,3.2,6.3,4.9,6.3,3.3,0,3.5,2.7,4.9,3.9,4.7,4,10.5,4.7,15.9,5.5,5.7.9,10.5-2.1,14.6-6.2.5-.5,1.4-.6,2-.9-3.5,6.1-10.4,9.9-18,8.7-9.9-1.5-18.6-5.5-24-14.4-1.8-3-2.8-6.7-3.8-10.2-1.1-3.8-1.9-7.7-2.9-11.6h0Z"/>
        <path class="cls-27" d="M692.9,521.6c-.5-7.2-4.2-11.8-11.2-13.7h0c0-.2.2-.5.1-.5-2.4-1-4.8-2.7-7.3-2.9-4.2-.1-8.5-.4-12.4,1.6-2.6,1.3-5.2,2.7-7.9,4.1-1.4.7-3.3,2.3-4.3,1.9-2.7-1.2-5.2-3.3-7.6-5.1-.2-.1.4-1.4.7-2.1,5.4,5.3,5.5,5.5,12.5,1.8,11.7-6.1,22.6-5.2,33,2.7,3.9,3,5.7,8.4,4.4,12.3h0ZM670.5,503.9c0,0-.1,0-.2,0,0,.2,0,.2.2.3,0,0,0-.1,0-.2h0Z"/>
        <path class="cls-22" d="M643.6,30.1c-2.1.3-2.7-.7-3.2-2.7-1-4.9-2-9.9-6.6-13.3-3.6-2.7-6.6-6-10-8.9-.9-.8-2.3-1-3.3-1.6-.7-.5-1.2-1.3-1.9-2,5.9.7,10.6,3.7,14.6,8.1,5.5,5.8,7.9,13.1,10.3,20.5h0Z"/>
        <path class="cls-27" d="M636.5,603.1c2-2.6,3.9-5.1,5.8-7.7.6-.8.9-2,1.6-2.5.9-.6,2.1-.7,3.3-1.1-3.6,3.7-7.1,7.6-10.7,11.3Z"/>
        <path class="cls-19" d="M311,125.3c1.3-2.9,2.6-5.9,3.9-8.7.4-.8,1-1.4,1.4-2.1.6.7,1.2,1.4,1.8,2.1.3.5.5,1.1.7,1.6-4-2.1-4.1,1.6-5.4,3.6-.8,1.2-1.6,2.4-2.4,3.6h0Z"/>
        <path class="cls-22" d="M609.7,134.9c.6-1,.9-2.4,1.7-2.8,2.3-1.2,4.8-2.1,7.2-3-3,2-5.9,3.9-9,5.8h0Z"/>
        <path class="cls-19" d="M306,131.1c1.7-1.9,3.3-3.9,5-5.8,0,4.5-1,5.7-5,5.8Z"/>
        <path class="cls-22" d="M618.7,129c.7-3,2.9-3.4,5.4-3.5-1.8,1.2-3.6,2.4-5.4,3.5Z"/>
        <path class="cls-19" d="M286.2,129.9c2.6.8,5.2,1.6,7.7,2.4-3,.7-5.7.2-7.7-2.4Z"/>
        <path class="cls-19" d="M296.2,132.6c3.2-.4,6.3-.9,9.5-1.3-1,.6-1.8,1.6-2.9,1.7-2.2.1-4.5-.2-6.7-.4Z"/>
        <path class="cls-27" d="M647.2,591.8q1.1-3.2,3.5-2c-1.2.7-2.3,1.3-3.5,2Z"/>
        <path class="cls-24" d="M571.9,104.7c.2.2.5.4.8.7-.3.3-.6.6-1,.9,0-.5.1-1,.1-1.5h0Z"/>
        <path class="cls-19" d="M283.1,128.2c.4.2.8.5,1.1.7-.4-.2-.8-.5-1.1-.7Z"/>
        <path class="cls-28" d="M675.7,593.8c.1-.2.3-.3.4-.5,0,.2.1.3.2.5h-.7Z"/>
        <path class="cls-27" d="M691.8,522.4l.9-.9-.9.9Z"/>
        <path class="cls-19" d="M285.5,129.5c.2.2.5.4.7.5-.2-.2-.5-.4-.7-.5Z"/>
        <path class="cls-10" d="M455.2,224.7c-.4-12,7.6-16,16.9-18.2,2.4-.5,5.8,1,8,2.6,3.1,2.2,6.8,4,7.1,9,.8,13.6-7.3,20.8-14.2,21.4-7.3.7-18.1-6.2-17.7-14.8h0Z"/>
        <path class="cls-19" d="M647.7,400.2c1.4,8.9-8.1,16.1-15.9,16.1-12.5-.2-19.6-8.8-17.8-20.7.6-3.8,3.2-6.4,6.7-8.6,5-3,10-4,15.6-3.5,6.5.7,11.9,9.8,11.4,16.8h0ZM645.9,400c0-7.8-6.3-15.2-12.9-15.2s-17.9,8.6-17.7,14.4c.4,8.5,6.9,15.2,15.7,15.1,8,0,15.3-5.2,14.9-14.3Z"/>
        <path class="cls-19" d="M616.2,229.5c.2-2.9.4-5.3.7-7.6,0-.5.5-1.1,1-1.3,5-2.9,9.9-6.4,16.1-4.9,2.6.7,5.7,1.9,7.2,3.9,3.2,4.4,6.8,9.5,4.6,15.2-1.1,3.1-4.2,5.6-6.4,8.3-.5.5-1.3.8-2,1.1-7.3,3.7-10.8,1.9-16.9-3.6-4.2-3.7-3.2-7.7-4.3-11.2h0ZM618.5,229c-.2,8.1,5.4,15.2,11.8,15.2,6.3,0,13.7-6.5,13.9-12.4.2-8.1-5.9-14.7-14-14.9-5.7-.1-12.5,4.3-11.7,12h0Z"/>
        <path class="cls-10" d="M598.4,71c-1.3-6,8.2-16.4,13.1-18.3,5.1-2,10.4-2.9,15.6-1.5,10.5,2.7,14.2,6.2,15.9,16.8,1.5,9.7-1.7,18-10.8,22-4.5,2-10.5,2-15.3.8-5.3-1.3-10.6-4.3-14.7-8.1-2.7-2.5-3.2-7.4-4.6-11.2.3-.1.7-.2,1-.4h0Z"/>
        <path class="cls-10" d="M295.4,407.9c-7.1,0-13.7-5.8-13.4-12.3.5-10.1,6.7-15.4,14.9-16,7.1-.5,12.4,5.7,12.4,13.8s-4.3,14.8-13.9,14.4h0Z"/>
        <path class="cls-14" d="M179,564.3c-2,.9-3.9,1.9-6,2.6-.9.3-2-.2-3,0-4.3.4-14.5-4.8-14.9-8.4-.6-5.4.2-11,.5-16.5,0-.5,1.4-1,2.1-1.5,6.1-4.1,12.9-4.4,19.4-1.8,2.7,1.1,4.9,4.5,6.5,7.3,3.5,6.2.1,11.3-3.7,16.1-.5.7-.7,1.5-1,2.4h0ZM157.5,544.1c-.2.4-.4.8-.6,1.2,0,.1-.1.2,0,.4-2,3-1.7,9,.6,11.6,1.2,1.8,2.1,3.9,3.6,5.2,4,3.3,8.7,2.7,13.2,1.2,5.2-1.7,7.8-6,8.6-11.1.7-4.4-.9-8.3-4.5-10.9-5.5-4-13.3-3.6-19.2.5-.6.7-1.2,1.2-1.7,1.9h0Z"/>
        <path class="cls-14" d="M179,564.4c0,0,.2,0,.2.1,0,0-.1,0-.2-.1h0Z"/>
        <path class="cls-10" d="M151.7,60.5c.4-6.8,6.5-11.5,14.9-11.8,5.8-.2,12,7.4,11.8,14.3s-5.8,12.6-12.3,12.4c-7.2-.2-14.6-7.8-14.5-14.9h0Z"/>
        <path class="cls-21" d="M513.2,394.8c-2.6,2.9-5.8,6.2-8.6,9.8-.7,1-.1,2.9-.1,4.3s.1.2.2.2c8.4,12.2,8.3,22-.5,33.8-4.2,5.6-13.1,7.6-21.5,4.7-2.8-1-5.7-1.9-8.1-3.5-2.7-1.7-4.4-.7-6.5.8-4.4,3.2-8.7,6.6-13.5,9-8,4.1-17.9.5-24.5-7.9-4.8-6.1-6.3-12.8-5.8-20.3.7-8.8.6-8.7-7.8-11.2-2.6-.8-5.1-1.5-7.6-2.6-16.8-7.1-20-28.7-6.2-40.5,5.1-4.4,10.8-7.6,17.3-9.6,1.7-.5,3.4-2.3,4.2-3.9,1.9-3.7,3.3-7.6,4.9-11.4,4.3-9.8,15.2-14,24.3-14.1,5.5,0,9,3.7,12,7.8,3,4.2,5.9,8.4,8.6,12.8,2.3,3.7,5.5,5.6,9.8,5.5,4.9,0,9.9-.4,14.8-.5,11.2-.2,16.4,2.8,20.2,11.7,4.1,9.8,2.6,17.2-5.5,25.2h-.1ZM455.8,389.2c-5.1,4.9-5.2,15.5-.3,20.8,4.4,4.7,12.5,4.6,17.4-.1,4.9-4.8,6-14.5,1.7-18.4-6.1-5.7-13.7-6.7-18.9-2.2h0Z"/>
        <path class="cls-10" d="M455.8,389.2c5.2-4.6,12.8-3.5,18.9,2.2,4.3,4,3.2,13.7-1.7,18.4-4.9,4.8-13,4.8-17.4.1-4.9-5.2-4.8-15.8.3-20.8h0Z"/>
        <path class="cls-24" d="M639,564c-3-.7-5.9-1.6-9-2.2-5.1-1-7.6-5.1-9.3-9-2.6-5.9-1-11.3,4.9-14.8,5.3-3.3,14-2.9,19,2.3,3.6,3.8,4.3,7.9,3.1,12.7-1.5,2.2-2.8,4.5-4.5,6.5-1.1,1.4-2.6,2.4-3.9,3.6,0,.3,0,.6,0,.9h-.2ZM635.4,560.2c5.8,0,10.4-4.8,10.5-11.2.1-5.2-6-10.6-12.1-10.7-5.9,0-11.5,4.9-11.7,10.4-.1,6.1,6.1,11.5,13.3,11.6Z"/>
        <path class="cls-27" d="M635.3,571.5c.4-.6.8-1.1,1-1.7s-.2-.7-.2-1.1c.7.1,1.4.2,2,.3,0,0,0,.7-.1,1.1-.8,2.1-2.8,4.5,1,5.9.1,0,0,1.6-.4,1.7-1.5.5-3.1.8-4.7,1.1-.7.1-1.3-.2-2-.3.4-.7.5-1.9,1-2,3.2-.6,2.2-3,2.4-5h0Z"/>
        <path class="cls-27" d="M639.3,563.1c1.3-1.2,2.8-2.3,3.9-3.6,1.6-2.1,3-4.3,4.5-6.5-.7,5.9-4,10.1-8.4,10.2Z"/>
        <path class="cls-27" d="M651.2,579.6c-.5,1.2-.7,1.7-1,2.1,0,0-.8-.2-1-.4-1-1.2.5-3.5-1.9-4,.4-.1.9-.4,1.1-.2,1,.8,1.9,1.8,2.8,2.6h0Z"/>
        <path class="cls-27" d="M644.5,578.5c-1,.6-1.7,1.2-2.5,1.5-.2,0-.7-.5-1-.9.7-.6,1.3-1.2,2-1.7.2-.1.8.5,1.4,1h0Z"/>
        <path class="cls-27" d="M642,573.7c-1.4.7-2.1,1-2.9,1.3,0,0-.4-.4-.5-.5.5-.4,1-.9,1.5-1.2.3-.1.7.1,1.8.4h0Z"/>
        <path class="cls-27" d="M639,564h.2c0,.2,0,.4.1.5,0,.8.2,1.7.2,2.5,0,0-.4.1-.7.2,0-1.1,0-2.1.1-3.2h0Z"/>
        <path class="cls-27" d="M653.9,577.5c.2.5.5,1,.7,1.5,0,0-.6.5-.7.4-.5-.2-.9-.7-1.3-1,.2-.2.5-.4,1.4-.9h0Z"/>
        <path class="cls-27" d="M641.3,568.7c.2.4.3.6.4.8-.5.2-1,.5-1.4.7,0-.2-.2-.4-.1-.4.3-.4.7-.7,1.1-1h0Z"/>
        <path class="cls-27" d="M571.2,548.2l.7.7c-.2.1-.5.4-.7.3-.3-.1-.6-.4-.8-.6.2-.1.5-.2.8-.4h0Z"/>
        <path class="cls-27" d="M658.3,582.2c-.6.2-1,.4-1.2.4s-.4-.4-.5-.5c.3-.1.6-.3.9-.4.2,0,.4.2.8.5h0Z"/>
        <path class="cls-27" d="M640.1,571c-.2.3-.5.6-.8,1-.1-.1-.4-.4-.4-.4.3-.4.6-.7.9-1.1,0,.1.1.2.3.5Z"/>
        <path class="cls-27" d="M643.3,565.4c-.2.5-.2.5-.7.3q.2-.5.7-.3Z"/>
        <path class="cls-27" d="M629.5,581.9c-.3.1-.5.2-.6.2-.2-.1-.4-.3-.5-.5.2,0,.4-.2.5-.2.2.1.4.3.7.5h0Z"/>
        <path class="cls-27" d="M640.1,580.4c-.1.2-.2.4-.4.7-.3-.5-.2-.7,0-1.2,0,.2.2.3.3.6h0Z"/>
        <path class="cls-27" d="M681.7,507.9c.2.6.4,1.2.6,1.8h0c-.2-.5-.4-1.1-.6-1.8h0Z"/>
        <path class="cls-27" d="M635.2,571.5c-.3-.2-.6-.4-.9-.5l.4-.4c.2.3.4.6.5.9h0Z"/>
        <path class="cls-27" d="M676.2,508.8c0-.5.1-.8.5-.2-.1,0-.3.1-.5.2Z"/>
        <path class="cls-27" d="M645.8,585.6c0,.1-.2.4-.4.4s-.1-.4-.1-.5c.1,0,.3.1.5.2h0Z"/>
        <path class="cls-27" d="M577.1,533.5c-.1,0-.3,0-.4.1,0-.5.2-.7.4-.1Z"/>
        <path class="cls-27" d="M687.2,573.4c.4-.4.6-.3.4.3-.1-.1-.3-.2-.4-.3Z"/>
        <path class="cls-27" d="M572.1,541.5c.1.2.2.3.4.4-.1,0-.3.3-.5.2s0-.4.1-.5h0Z"/>
        <path class="cls-27" d="M634,567.5c0,.2-.1.4-.2.5-.2-.2-.3-.3-.2-.7.1,0,.2,0,.4.1h0Z"/>
        <path class="cls-27" d="M682.8,539.4c-.2,0-.5-.2-.7-.2,0,0,.1-.2.1-.2.2.1.4.2.6.4h0Z"/>
        <path class="cls-27" d="M574.7,564c0,0,0,.1,0,.2q-.2,0-.2-.3c0,0,.2,0,.2,0h0Z"/>
        <path class="cls-27" d="M569.9,545.5c0,.2,0,.2-.2.2,0-.2,0-.2.2-.2Z"/>
        <path class="cls-27" d="M648.3,584.4c0,0-.1-.1-.2-.2.2-.1.2-.1.4,0,0,0-.1,0-.2.1h0Z"/>
        <path class="cls-27" d="M631.6,582.6c0,0,0-.1,0-.2q.2,0,.1.3c0,0-.1,0-.2,0h0Z"/>
        <path class="cls-27" d="M678.9,508.2c-.2.1-.2.1-.4,0h.4Z"/>
        <path class="cls-27" d="M642.1,581.5c0,0,.1,0,.2,0,0,.2,0,.2-.3.1,0,0,0-.1,0-.2h0Z"/>
        <path class="cls-27" d="M657.1,580.6c0,0-.1,0-.2,0q0-.2.3-.2v.2h-.1Z"/>
        <path class="cls-27" d="M631,580.4l-.2.2q-.1-.2,0-.4c0,0,0,.1.1.2h0Z"/>
        <path class="cls-27" d="M682.3,509.6c0,0,.1.1.2.2,0,0-.2,0-.2-.1h0Z"/>
        <path class="cls-27" d="M571.6,551.8c0,0,0-.2.1-.2,0,0,0,.2-.1.2h0Z"/>
        <path class="cls-27" d="M571.6,551.9c0,0,0,.1-.1.2,0,0,0-.2.1-.2h0Z"/>
        <g>
          <path class="cls-18" d="M375.4,523.9c-.4,7-1.4,13.8-5.2,19.9-1.7,2.7-1.5,5.2-.2,8.3,2.7,6.1,5.9,12.1,5.4,19.2-.5,7.7-4,13.9-9.4,18.9-3.2,3-7.4,3-11.5,2.4-5.8-1-11.5-2.1-17.2-3.2-4.6-.9-8.2.8-11.4,4.2-4.6,4.8-9.1,9.6-14,14.1-4.2,3.8-9.4,5-14.6,2.7-4.3-1.9-8.6-4.4-12.3-7.4-4.2-3.5-4.5-8.8-4.7-13.9-.2-4.8-.3-9.5-.8-14.2-.1-1.1-1.7-2.1-2.7-3.2,0,0-.2,0-.3,0-14.2-.3-19.9-9.9-23.3-21.8-1.8-6.4.6-14,6.2-17.6,4.3-2.8,9.3-4.6,13.9-7.2,1.4-.8,2.9-2.4,3.2-3.8,1.1-4.4,1.5-9,2.4-13.4,1.9-9.2,9.1-15,18.4-15.5,10.1-.5,18.1,3.1,24.4,10.9,5.2,6.4,5.3,6.3,12.4,2.4,1.7-1,3.5-1.9,5.2-2.9,12.9-7,23.6-2,32.1,7.9,2.9,3.3,4.2,13.2,3.9,13.3h.1ZM310,536c-6.7,0-12.5,6.1-12.2,13.6.2,6.8,5.8,13.9,13.1,14,7.1.1,15.2-6.5,14.8-12.7-.4-7-6.8-14.7-15.7-14.9h0Z"/>
          <path class="cls-10" d="M310,536c8.9.2,15.3,7.9,15.7,14.9.4,6.2-7.7,12.8-14.8,12.7-7.3-.1-12.8-7.3-13.1-14-.3-7.4,5.5-13.7,12.2-13.6h0Z"/>
        </g>
        <path class="cls-10" d="M144.8,414.4c-7.5,0-13.4-4.9-13.4-10.9s6-13.8,13.6-14.2c7.1-.4,13.2,6.9,13,14.6-.2,5.5-6.5,10.6-13.3,10.5h0Z"/>
        <path class="cls-25" d="M447.4,64.7c0-5.9,3.7-12.4,9-14.4.8-.3,2.1.4,3.2.9,2.9,1.2,5.7,2.5,8.4,3.8,4.3,2,3.9,6.1,4.1,9.9,0,1.5-.4,3.1-.6,4.6,0,.5,0,1.4-.4,1.5-2,1.3-4.1,2.5-6.1,3.7-5.5,3.3-10.2-.2-14.5-2.6-1.8-1-2.1-4.9-3-7.6ZM460.5,73c4.2,0,9.3-4.4,9.4-8.1.1-4.9-5.5-10.9-10.2-10.9s-10,4.4-9.9,10.5c0,3.9,5.7,8.4,10.7,8.5h0Z"/>
        <path class="cls-16" d="M373.1,58.2c.3,7.6-4,13.3-8,18.9-2,2.8-5.9,4.3-9.2,6.1-3.7,2.1-4.3,3.7-2.1,7.3,3.3,5.4,7.1,10.4,10,15.9,2.9,5.7,5.2,11.7,3.8,18.3-.2.8-.2,1.7-.6,2.3-3.9,5.7-8.4,10.2-15.9,10.1-2.8,0-5.7,0-8.4-.7-1.8-.4-3.3-2-5-3.1-.5-.3-.8-.9-1.4-1.1-8.4-2.9-12.9-9.6-16.5-17.1-.5-1-2.1-1.5-3.3-1.9-.5-.1-1.5.8-1.9,1.5-1.7,3.2-3.3,6.4-4.9,9.6-2,4-6,5.4-9.6,6.1-7,1.4-13-2.3-18.6-5.9-2.4-1.5-4.2-4.2-5.8-6.7-1.4-2.3,1.2-8.8,3.1-11.4,2.7-3.7,5-7.9,7.1-12,.8-1.6.4-3.1-1.9-3.6-8.4-2-17-3.8-25.3-6.4-2.7-.8-4.9-3.7-7.3-5.6-1-.8-2.1-1.4-2.8-2.3-1.7-2.2-2.6-4.6-.6-7.2,1.9-2.5,3.8-4.9,5.5-7.6,4-6,10.8-6.3,16.9-7.9,2.4-.6,4.8-.8,7.2-1.4,4.3-1,5.5-2.7,4.9-9.4-.6-7.2,0-14.2,2.9-20.9.8-1.7,2.2-3.2,2.9-4.9,3-7.2,8.6-10.8,14.8-8.6,2.6.9,5,2.9,7.1,4.9,2.9,2.7,5.8,5.4,8,8.7,3,4.5,5.4,9.3,7.7,14.2,1.4,3.2,3.5,4.4,6.7,3.6,3.8-1,7.6-2.9,11.4-3,6.3-.2,12.8,0,18.9,1.5,6.1,1.4,7.9,7.5,9.5,12.9.7,2.1.5,4.5.8,6.7v-.2ZM320.1,87.9c6.8,0,12.4-6.5,12.3-14.8,0-8.3-6.5-14.9-15.3-14.8-7.6,0-15.1,5.9-15,14.6,0,7.7,8.6,14.8,18,14.9h0Z"/>
        <path class="cls-13" d="M315.2,182.4c2.8,1.1,3.7-1.5,5.1-2.8,4.6-4.1,9.5-6.7,16.1-6.7,4,0,7.4,1.3,10.8,2.5,5.1,1.8,8,6.1,9.9,10.7,1.7,4.1,4.8,7.5,4.9,12.3.1,5.1,0,9.9-3,14.3-2.1,3-1.2,5.9,1.5,8,2.7,2.1,4.8,5.1,7.2,7.6,1.2,1.3,2.6,2.5,3.9,3.7,6,5.5,7.1,10.8,3.9,18.3-.5,1.2.6,3.9-2.5,2.9,0,.4-.2.9-.1,1.3,1,3.5-.7,6.3-4,8.4-3.7,2.4-7.3,5.1-10.6,8-1,.8-1,2.9-1.4,4.3-.8,2.8-1.4,5.7-2.4,8.4-.8,2-1.8,4.3-3.5,5.6-6,4.7-11.7,10.3-18.6,13.2-5.8,2.5-13.3,3.5-19-2.4-3.3-3.5-6.8-6.8-10.1-10.4-.7-.7-.7-1.9-1-2.9-1.5-4.6-5.8-4.2-9-3.9-7.9.9-14.9-2-20.6-6.2-4.8-3.6-8.7-9.1-9.6-16.1-.8-5.9,1.5-10.9,3.5-16,1.4-3.5,3.4-6.6,4.8-10,.6-1.4.6-3.1.4-4.6-.2-2.6-.8-5.1-1.2-7.6,0-.5-.4-1.1-.7-1.2-5.7-2.4-5.4-8.1-6.5-12.7-.7-2.7-1.1-6.1,0-8.3,2.3-4.5,2-10.5,7.5-13.3,2-1,3.2-3.6,4.8-5.4,2.9-3.1,10.6-4.3,14.5-2.9,2.8,1,5.8,1.1,8.8,1.7,4.9,1,9.9,2.1,14.8,3.2v.2c.1,0,.2-.1.2-.1h-.2c.4-.5.8-1,1.2-1.4h0v.2ZM336.5,237.6c-.8-2.4-2.4-6.7-3.9-11-.1-.2-.4-.5-.6-.6-3.7-1.3-7.4-3.5-11.2-3.7-5.5-.3-11.8-1.2-15.3,5-.5.8-1,1.7-1.7,2.3-3.4,3-4,7.9-3.2,12.4,1.4,7.4,7.3,10.5,12.9,13.1,3.5,1.6,8.8,1.8,12.4.5,6.6-2.6,10.7-8.1,10.6-17.9h0Z"/>
        <path class="cls-24" d="M542.5,57.5c-.2-.3-.4-.7-.5-1,.1,0,.2-.1.4-.2,0,.4.1.8.1,1.1h0Z"/>
        <path class="cls-9" d="M473.3,586.5c-1.2-1.7-2.7-3.2-3.6-5-1.5-2.8-3.1-2.6-5.6-1.1-4.6,2.7-9.2,5.4-14.1,7.4-8.4,3.4-15.9,1.8-21.3-5.9-7.3-9.5-3-18.9,0-28.3l.2.2c-.1,2.1-.1,4.2-.5,6.2-.6,3.6-1.8,7.2-2,10.8-.2,3,1.5,5.4,3.1,8.1,2.4,4.2,4.8,7.9,9.3,8.8,3.5.7,7.5,0,10.9-1.1,4.3-1.5,8.3-4,12.1-6.5,3.2-2.1,6.1-2.9,9.2-.2h0c.3,1.1.6,2.1,1,3.2.4,1.1,1,2.1,1.5,3.2l-.3.3h0Z"/>
        <path class="cls-9" d="M531.3,517.9c4.8,4.9,7.7,10.5,8.6,17.4,1.1,9.3-3.2,16.2-12.7,19.7l-.2-.2c1.5-1.4,2.9-3.1,4.6-4,4.6-2.7,7.1-6.5,7.3-11.7.2-8.6-4-15.4-10.1-20.8-4.6-4.2-10.8-5.6-16.8-7.3-2.3-.7-5.4,1.2-7-1.9.1,0,.2-.2.4-.2,7.1,1.1,14.5,1.5,20.9,5.5,1.7,1.1,3.4,2.4,5.1,3.5h0Z"/>
        <path class="cls-9" d="M421.9,537.9c-6.6-12.7-2.3-28.3,15.7-30,2.9-.2,5.7-.8,8.6-.7,5.4.3,8.7-2.7,11.7-6.7h.2c-1.8,6.1-4.8,8.4-11.1,8.4-6.4,0-12.6,1.1-18.5,3.9-6,2.9-9.6,11.8-7.3,18.1.8,2.1.8,4.5,1.2,6.7-.1.1-.2.2-.4.3h0Z"/>
        <path class="cls-9" d="M457.8,500.6c4.4-5,8.5-10.4,13.3-15,6.5-6.1,15.2-5.9,22.1-.2,7.4,6.1,11.5,13.9,12.1,23.4-.1,0-.2.2-.4.2-.8-2.7-2-5.2-2.5-8-1.4-7.2-6.5-11.6-11.9-15.7-1.7-1.4-4.1-2.7-6.2-2.7-7.7,0-13.4,3.8-17.7,10.2-1.8,2.7-4.2,5-6.4,7.4-.4.5-1.5.3-2.3.5h-.2c0-.1,0-.2,0-.2Z"/>
        <path class="cls-9" d="M429.8,549.1c-2.6-3.7-5.3-7.4-7.9-11.2.1-.1.2-.2.4-.3,2,2.6,4,5.1,5.9,7.7.8,1.1,1.2,2.4,1.8,3.6,0,0-.2.1-.2.2h0Z"/>
        <path class="cls-9" d="M428.7,553.5c.4-1.5.8-3,1.1-4.5,0,0,.2-.1.2-.2,2.6,2.3,1.1,3.6-1.1,4.8l-.2-.2Z"/>
        <path class="cls-9" d="M525.9,555.6c-3.6,1.7-7.1,3.3-10.6,5.3-.9.5-1.4,2.1-1.5,3.2-.1,1,.5,2.1.9,3.1,3.4,11.2-.7,21.5-10.8,27.2-8.4,4.8-20.7,2.6-28-5.1-.9-1-1.7-1.9-2.6-2.9l.3-.3c1,.4,2,.7,2.8,1.3,4.7,3.6,9,7.3,15.6,8.1,5.7.8,9.5-1.4,13.3-4.6,3.2-2.6,5.8-5.4,7.7-9.4,2.1-4.4,1.8-12-.1-15.5-1.7-3.2-1.5-5.4,1.7-6.8,3.6-1.6,7.5-2.7,11.2-4.1v.2c.1,0,.1,0,.1,0Z"/>
        <path class="cls-9" d="M527.1,555c-.4.2-.8.4-1.2.6v-.2c.3-.2.7-.4,1.1-.6l.2.2h0Z"/>
        <path class="cls-28" d="M688.8,527.4c.2-.3.4-.6.5-.9l.4.4c-.3.2-.6.4-.9.5h0Z"/>
        <path class="cls-28" d="M683.7,589.1q-.2.1-.4,0h.4Z"/>
        <path class="cls-28" d="M685.2,551.2c0,0,0-.1.1-.2,0,0,0,.2-.1.2h0Z"/>
        <path class="cls-28" d="M687.6,582.8c0,0,.1,0,.2.1,0,0-.2,0-.2-.1h0Z"/>
        <path class="cls-28" d="M670.5,503.9c0,0,0,.1,0,.2q-.2,0-.2-.3c0,0,.1,0,.2,0h0Z"/>
        <path class="cls-10" d="M645.9,400c.5,9.1-6.8,14.2-14.9,14.3-8.8,0-15.3-6.5-15.7-15.1-.3-5.8,8.4-14.4,17.7-14.4s12.9,7.4,12.9,15.2Z"/>
        <path class="cls-11" d="M228.6,232.9c-2.3-11.2-8.5-20.2-18.3-26.4-2.5-1.6-3.2-3.5-2.6-6.5,1.1-5.1,1.8-10.2,2.6-15.4-.5-9.9-4.5-16.1-12.2-18.2-14.3-4-27-.1-38.6,8.2-6.4,4.6-9.3,5.2-15.1.9-6.5-4.9-13.9-6.5-21.8-6.5s-13.9,4.8-15.8,11.1c-2.9,9.7-3.5,19.6-2.7,29.6.4,5.4-2,9.6-4.6,13.6-3.4,5.2-6.9,10.2-8.4,16.4-2.4,9.8-1.4,18.7,7.1,25.2,8.2,6.3,17.6,8.3,27.8,7.1,3.5-.4,7.4-2.4,9.8,2.3,3.2,6.1,6.5,12,10,18,3.7,6.5,9.3,10.9,16.6,12.8,6,1.6,12,1.1,18-.7,7.6-2.1,11.2-7.3,12.9-14.2,1.2-4.6,1.7-9.5,2.1-14.3.3-3.7,1.4-6.4,5.4-7.5,3.7-1,7.6-1.8,10.9-3.6,4.2-2.2,8.3-4.9,11.8-8,7.4-6.6,6.7-15.5,5-23.9h0ZM168.8,206.3h0ZM171.3,202.6s0,0-.1.1c0,0,.1-.1.1-.1h0ZM140.8,226.4c-.1-9,5.6-14.6,14.9-14.8,8.9-.7,16.4,6.1,16.2,14.5-.1,8-8,15.1-17.6,15.2-7.2,0-13.4-6.7-13.5-14.8h0Z"/>
        <path class="cls-10" d="M618.5,229c-.8-7.6,5.9-12.1,11.7-12,8,.2,14.2,6.8,14,14.9-.1,5.8-7.6,12.4-13.9,12.4-6.5,0-12-7.1-11.8-15.2h0Z"/>
        <path class="cls-10" d="M156.9,545.7v-.4c.2-.4.4-.8.6-1.2h0c.6-.7,1.2-1.2,1.7-1.9,5.8-4.2,13.7-4.5,19.2-.5,3.6,2.6,5.3,6.5,4.5,10.9-.8,5.1-3.4,9.4-8.6,11.1-4.5,1.5-9.2,2-13.2-1.2-1.6-1.3-2.4-3.5-3.6-5.2-.2-3.9-.4-7.7-.6-11.6h0Z"/>
        <path class="cls-24" d="M156.9,545.7c.2,3.9.4,7.7.6,11.6-2.3-2.5-2.6-8.6-.6-11.6Z"/>
        <path class="cls-24" d="M159.3,542.2c-.6.7-1.2,1.2-1.7,1.9.6-.7,1.2-1.2,1.7-1.9Z"/>
        <path class="cls-24" d="M157.5,544.1c-.2.4-.4.8-.6,1.2.2-.4.4-.8.6-1.2Z"/>
        <path class="cls-10" d="M635.4,560.2c-7.2-.1-13.4-5.5-13.3-11.6.1-5.5,5.7-10.4,11.7-10.4,6.1,0,12.2,5.5,12.1,10.7-.1,6.4-4.7,11.3-10.5,11.2Z"/>
        <path class="cls-10" d="M460.5,73c-5,0-10.6-4.6-10.7-8.5,0-6.1,4.1-10.6,9.9-10.5,4.7,0,10.3,6.1,10.2,10.9,0,3.7-5.2,8.1-9.4,8.1Z"/>
        <path class="cls-10" d="M320.1,87.9c-9.4-.1-17.9-7.3-18-14.9,0-8.7,7.4-14.6,15-14.6,8.7,0,15.3,6.5,15.3,14.8s-5.5,14.9-12.3,14.8h0Z"/>
        <path class="cls-22" d="M336.5,237.6c0,9.8-4,15.3-10.6,17.9-3.6,1.4-8.9,1.2-12.4-.5-5.6-2.6-11.5-5.7-12.9-13.1-.8-4.4-.2-9.3,3.2-12.4.7-.7,1.2-1.5,1.7-2.3,3.6-6.2,9.9-5.4,15.3-5,3.8.2,7.4,2.4,11.2,3.7.2.1.5.4.6.6,1.5,4.3,3.1,8.6,3.9,11h0ZM333.7,239.2c-.5-10.6-6.8-16-17.1-15-8.3.8-14.3,7-14.4,15.6,0,7,9.2,15.5,21.2,13.6,6.2-1,10.7-6.5,10.2-14.2Z"/>
        <polygon class="cls-6" points="314.1 183.7 314.2 183.8 314.2 183.8 314.1 183.7"/>
        <path class="cls-2" d="M527,554.8c-.4.2-.8.4-1.2.6-3.7,1.4-7.6,2.5-11.2,4.1-3.2,1.4-3.5,3.6-1.7,6.8,1.9,3.5,2.2,11,.1,15.5-1.9,4-4.5,6.8-7.7,9.4-3.8,3.2-7.6,5.4-13.3,4.6-6.5-.9-10.8-4.6-15.6-8.1-.8-.6-1.8-.8-2.8-1.3-.5-1.1-1.1-2.1-1.5-3.2-.4-1-.7-2.1-1-3.2,0,0,0-.1.1-.2,0,0,0,.1-.1.2-3.2-2.7-6-1.9-9.2.2-3.9,2.5-7.9,4.9-12.1,6.5-3.4,1.2-7.4,1.8-10.9,1.1-4.5-.9-7-4.6-9.3-8.8-1.5-2.7-3.3-5.1-3.1-8.1.2-3.6,1.4-7.2,2-10.8.4-2,.3-4.1.5-6.2,2.2-1.2,3.7-2.5,1.1-4.8-.6-1.2-1.1-2.5-1.8-3.6-1.9-2.6-3.9-5.2-5.9-7.7-.4-2.2-.5-4.6-1.2-6.7-2.3-6.3,1.3-15.2,7.3-18.1,5.9-2.8,12.1-3.9,18.5-3.9s9.3-2.3,11.1-8.3c.8-.1,1.8,0,2.3-.5,2.3-2.4,4.6-4.7,6.4-7.4,4.2-6.4,10-10.2,17.7-10.2,2.1,0,4.5,1.3,6.2,2.7,5.4,4.1,10.5,8.5,11.9,15.7.5,2.7,1.7,5.3,2.5,8,1.6,3.2,4.7,1.2,7,1.9,6,1.7,12.2,3,16.8,7.3,6,5.5,10.3,12.3,10.1,20.8-.1,5.2-2.7,9-7.3,11.7-1.7,1-3.1,2.7-4.6,4h.1ZM489.7,530.3v-.4c0-.5.2-1.3.1-1.4-4.3-2-8.5-4.6-13-5.4-3.4-.6-7.2,1.1-10.8,1.9-5.3,1.1-11.2,8.3-10.9,13.7.4,4.8,1.5,9.4,2.4,14.1,0,.1.8.2.8.2,1.2-2.4,1.3,0,1.8.5,2.2,1.8,4.1,4.5,6.6,5.3,3.8,1.1,8,1.2,12,1.3,3.5.1,9-3.3,9.6-5.8.4-.6.8-1.2,1.2-1.8,1.1-1.8,2.3-3.7,3.3-5.5,0-.2,0-.3.1-.5.2-.8.5-1.6.7-2.4,0-.8,0-1.5.1-2.3,1.9-3-.3-10-3.7-11.4-.2,0-.4,0-.5,0h0Z"/>
        <path class="cls-10" d="M333.7,239.2c.4,7.7-4,13.3-10.2,14.2-12.1,1.8-21.3-6.6-21.2-13.6,0-8.6,6.2-14.8,14.4-15.6,10.2-1,16.6,4.5,17.1,15Z"/>
        <path class="cls-9" d="M488.4,554.3c-.7,2.4-6.1,5.9-9.6,5.8-4-.2-8.2-.2-12-1.3-2.5-.8-4.4-3.5-6.6-5.3-.5-.4-.6-2.8-1.8-.5,0,0-.8,0-.8-.2-.9-4.7-2.1-9.3-2.4-14.1-.4-5.5,5.5-12.6,10.9-13.7,3.6-.8,7.4-2.5,10.8-1.9,4.5.8,8.7,3.5,13,5.4.1,0,0,.9-.1,1.4-.5-.2-1-.4-1.4-.7h0c-.2-.2-.4-.4-.7-.6-.1,0-.3,0-.4-.1-.7-.4-1.2-.7-1.9-1.1h0l-1.7-.6c-.2,0-.4-.1-.5-.1-.2-.2-.4-.4-.6-.5-.4-.3-.8-.6-1.1-.9-.7,0-1.4-.1-2-.2-2.1,0-4.2-.3-6.2-.1-10.1,1.1-16.8,4.9-15.7,16.9.3,3.6,2.4,7,3.6,10.4.4.5.7,1,1,1.4h0c.4.4.7.8,1.1,1.2,0,.1.1.3.2.4.4.4.9.8,1.3,1.2.1,0,.3,0,.4.1.6.2,1.2.4,1.8.7h0c.4.2.8.4,1.2.5h0c.2,0,.4,0,.6,0l1.6.2c2.3.1,4.5.2,6.7.4.4,0,.8,0,1.1,0h.7c.4,0,.7,0,1.1,0,1-.5,2.1-1,3.1-1.4.5-.2,1.1-.4,1.7-.7.6-.4,1.2-.9,1.8-1.3h0c.6-.2,1.1-.4,1.7-.7l.2.2h0Z"/>
        <path class="cls-9" d="M490.3,530.4c3.4,1.5,5.7,8.4,3.7,11.4-.2-.7-.5-1.3-.7-2,0-.4,0-.7,0-1,0-.2,0-.4,0-.7h0c-.4-1.2-.8-2.4-1.2-3.6,0-.1,0-.3-.1-.4-.2-.4-.4-.8-.5-1.2h0c-.3-.8-.7-1.7-1-2.5h0Z"/>
        <path class="cls-9" d="M493,547c-1.1,1.8-2.3,3.7-3.3,5.5-.1-.1-.2-.2-.4-.3v-.3c0-.2.1-.5.2-.7.8-1.4,1.5-2.8,2.3-4.2h1.2,0Z"/>
        <path class="cls-9" d="M493.8,544.2c-.2.8-.5,1.6-.7,2.4,0-.5-.2-1-.2-1.4,0-.3.1-.7.2-1h.7Z"/>
        <path class="cls-23" d="M490.3,530.4c.3.8.7,1.7,1,2.5-.6-.8-1.2-1.5-1.8-2.3l.3-.3c.2,0,.4,0,.5,0h0Z"/>
        <path class="cls-23" d="M493.8,544.2h-.7c0-1.4,0-2.9.1-4.3.2.7.5,1.3.7,2,0,.8,0,1.5-.1,2.3h0Z"/>
        <path class="cls-23" d="M492.9,545.2c0,.5.2,1,.2,1.4,0,.2-.1.3-.1.5h-1.2c.4-.7.8-1.3,1.1-2h0Z"/>
        <path class="cls-9" d="M489.7,552.6c-.4.6-.8,1.2-1.2,1.8l-.2-.2v-1.1h0c.2-.2.4-.4.6-.7.1,0,.2-.1.4-.1.1.1.2.2.4.3h.1Z"/>
        <path class="cls-23" d="M488.3,529.3c.5.2,1,.4,1.4.7,0,.1,0,.2,0,.4-.1,0-.2.2-.3.2-.4-.4-.7-.8-1.1-1.3h0Z"/>
        <path class="cls-9" d="M471.1,579.8c0,0,0-.1.1-.2,0,0,0,.1-.1.2h0Z"/>
        <path class="cls-24" d="M488.3,529.3c.4.4.7.8,1.1,1.3.6.8,1.2,1.5,1.8,2.3h0l.5,1.2c0,.1,0,.3.1.4.4,1.2.8,2.4,1.2,3.6h0c0,.2,0,.4,0,.7,0,.4,0,.7,0,1,0,1.4,0,2.9-.1,4.3,0,.3-.1.7-.2,1-.4.7-.8,1.3-1.1,2-.8,1.4-1.5,2.8-2.3,4.2,0,.2-.1.5-.2.7v.3c-.1,0-.2,0-.4.1-.2.2-.4.4-.6.7h0c-.6.6-1.2,1.2-1.8,1.7h0c-.6.4-1.2.9-1.8,1.3-.5.2-1.1.4-1.7.7-1,.5-2.1,1-3.1,1.4-.4,0-.7,0-1.1,0h-.7c-.4,0-.8,0-1.1,0-2.3-.1-4.5-.2-6.7-.4-.5,0-1.1-.1-1.6-.2-.2,0-.4,0-.6,0h0c-.4-.2-.8-.4-1.2-.5h0c-.6-.2-1.2-.4-1.8-.7-.1,0-.3,0-.4-.1-.4-.4-.9-.8-1.3-1.2,0-.1-.1-.3-.2-.4-.4-.4-.7-.8-1.1-1.1h0c-.4-.5-.7-1-1-1.4-1.2-3.5-3.3-6.8-3.6-10.4-1.1-12,5.6-15.8,15.7-16.9,2-.2,4.1,0,6.2.1.7,0,1.4.1,2,.2.4.3.8.6,1.1.9.2.2.4.4.6.5.2,0,.4,0,.5.1.6.2,1.2.4,1.7.6h0c.7.4,1.2.7,1.9,1.1.1,0,.3,0,.4.1.2.2.4.4.7.6h0ZM459.2,540.4c0,8.6,4.5,14.7,12,16.3,6.5,1.4,11.9-.8,16.2-5.8,5.5-6.4,5.5-12.9,0-19.2-4.9-5.7-16.2-5.7-22.6-2.6-5.2,2.5-4.9,7.6-5.7,11.4h0Z"/>
        <path class="cls-23" d="M470.3,558.1c2.3.1,4.5.2,6.7.4-2.3-.1-4.5-.2-6.7-.4Z"/>
        <path class="cls-23" d="M479.9,558.3c1-.5,2.1-1,3.1-1.4-1,.5-2.1,1-3.1,1.4Z"/>
        <path class="cls-23" d="M484.7,556.2c.6-.4,1.2-.9,1.8-1.3-.6.4-1.2.9-1.8,1.3Z"/>
        <path class="cls-23" d="M486.5,554.8c.6-.6,1.2-1.2,1.8-1.7v1.1c-.6.2-1.1.4-1.7.6h0Z"/>
        <path class="cls-23" d="M487.2,528.6c-.7-.4-1.2-.7-1.9-1.1.7.4,1.2.7,1.9,1.1Z"/>
        <path class="cls-23" d="M481.3,525.3c-.7,0-1.4-.1-2-.2.7,0,1.4.1,2,.2Z"/>
        <path class="cls-23" d="M461.1,552.4c.4.5.7,1,1,1.4-.4-.5-.7-1-1-1.4Z"/>
        <path class="cls-23" d="M462.1,553.7c.4.4.7.8,1.1,1.1-.4-.4-.7-.8-1.1-1.1Z"/>
        <path class="cls-23" d="M463.4,555.3c.4.4.9.8,1.3,1.2-.4-.4-.9-.8-1.3-1.2h0Z"/>
        <path class="cls-23" d="M465.1,556.7c.6.2,1.2.4,1.8.7-.6-.2-1.2-.4-1.8-.7Z"/>
        <path class="cls-23" d="M485.3,527.4c-.6-.2-1.2-.4-1.7-.6.6.2,1.2.4,1.7.6Z"/>
        <path class="cls-23" d="M466.9,557.2c.4.2.8.4,1.2.5-.4-.2-.8-.4-1.2-.5Z"/>
        <path class="cls-23" d="M483.1,526.7c-.2-.2-.4-.4-.6-.5.2.2.4.4.6.5Z"/>
        <path class="cls-23" d="M488.3,529.3c-.2-.2-.4-.4-.7-.6.2.2.4.4.7.6Z"/>
        <path class="cls-23" d="M468.1,557.8c.2,0,.4,0,.6,0-.2,0-.4,0-.6,0Z"/>
        <path class="cls-23" d="M478.2,558.4h.7-.7Z"/>
        <path class="cls-23" d="M493.1,538.2c-.4-1.2-.8-2.4-1.2-3.6.4,1.2.8,2.4,1.2,3.6Z"/>
        <path class="cls-23" d="M491.8,534.1l-.5-1.2c.2.4.4.8.5,1.2Z"/>
        <path class="cls-23" d="M493.2,538.9c0-.2,0-.4,0-.7,0,.2,0,.4,0,.7Z"/>
        <path class="cls-23" d="M489.3,552c0-.2.1-.5.2-.7,0,.2-.1.5-.2.7Z"/>
        <path class="cls-23" d="M488.4,553c.2-.2.4-.4.6-.7-.2.2-.4.4-.6.7Z"/>
        <path class="cls-10" d="M459.2,540.4c.8-3.8.4-8.9,5.7-11.4,6.3-3,17.7-3,22.6,2.6,5.5,6.3,5.4,12.8,0,19.2-4.3,5-9.7,7.2-16.2,5.8-7.5-1.6-12-7.7-12-16.3h0Z"/>
        <path class="cls-10" d="M155.7,211.7c8.9-.7,16.4,6.1,16.2,14.5-.1,8-8,15.1-17.6,15.2-7.2,0-13.4-6.7-13.5-14.8-.1-9,5.6-14.6,14.9-14.8h0Z"/>
      </g>
    </g>
  </g>
</svg>