<?xml version="1.0" encoding="UTF-8"?>
<svg id="Layer_2" xmlns="http://www.w3.org/2000/svg" xmlns:xlink="http://www.w3.org/1999/xlink" viewBox="0 0 241.58 44.13">
  <defs>
    <style>
      .cls-1 {
        fill: none;
      }

      .cls-2 {
        fill: #7a756d;
      }

      .cls-3 {
        fill: #2d2d2d;
      }

      .cls-4 {
        clip-path: url(#clippath);
      }
    </style>
    <clipPath id="clippath">
      <rect class="cls-1" width="241.58" height="44.13"/>
    </clipPath>
  </defs>
  <g id="Layer_1-2" data-name="Layer_1">
    <g class="cls-4">
      <path class="cls-2" d="M241.58,38.1h-4.67v.68h1.94v5.29h.8v-5.29h1.93v-.68ZM230.37,38.65c-.21-.2-.45-.35-.72-.46-.27-.11-.58-.16-.91-.16-.3,0-.56.05-.79.14-.23.09-.42.21-.58.37-.16.15-.28.33-.36.53s-.12.4-.12.61c0,.26.04.49.12.67.08.18.19.33.32.45.13.12.29.22.46.29.17.08.35.14.52.2.18.06.35.11.52.17.17.06.33.12.46.2.13.08.24.17.32.29s.12.26.12.44c0,.16-.03.31-.08.45-.06.13-.13.25-.24.34-.1.09-.23.17-.38.22-.15.05-.32.08-.51.08-.15,0-.29-.01-.41-.04-.12-.03-.23-.07-.33-.11-.1-.04-.18-.09-.26-.14-.07-.05-.14-.1-.2-.15-.06-.05-.11-.08-.16-.11-.05-.03-.09-.04-.12-.04-.04,0-.07.01-.11.03-.03.02-.06.05-.08.08l-.23.38c.23.24.5.43.81.57.32.14.67.21,1.06.21.32,0,.6-.05.85-.15.25-.1.46-.23.63-.4.17-.17.3-.37.39-.6.09-.23.13-.47.13-.74,0-.25-.04-.46-.12-.62-.08-.17-.19-.31-.32-.43-.14-.12-.29-.21-.46-.29-.17-.08-.35-.14-.52-.21-.18-.06-.35-.12-.53-.18-.17-.06-.32-.12-.46-.2-.14-.08-.24-.17-.32-.28-.08-.11-.12-.25-.12-.41,0-.13.02-.25.07-.36.05-.11.12-.21.21-.29.09-.08.21-.15.35-.2.14-.05.3-.07.48-.07.19,0,.35.02.49.07.14.05.25.1.35.16.1.06.18.11.24.16s.12.07.17.07c.04,0,.08-.01.11-.03.03-.02.06-.05.08-.09l.2-.38ZM219.7,38.1h-.81v5.97h.81v-5.97ZM209.52,43.39v-5.29h-.8v5.97h3.39v-.68h-2.58ZM199.65,38.1h-.82l-2.39,5.97h.62c.07,0,.13-.02.18-.06s.08-.08.1-.13l.56-1.44h2.68l.56,1.44c.02.05.06.1.1.14.04.04.1.05.18.05h.62l-2.39-5.97ZM198.12,41.85l.94-2.42c.06-.15.12-.34.18-.56.03.11.06.21.09.31.03.1.06.18.09.25l.94,2.43h-2.23ZM189.76,38.1h-.81v5.97h.81v-5.97ZM181.54,42.9c-.1.1-.21.18-.31.24-.1.07-.22.12-.34.17-.12.05-.25.08-.4.1-.14.02-.3.03-.48.03-.29,0-.56-.05-.81-.16-.25-.11-.47-.26-.65-.46-.19-.2-.33-.45-.44-.74-.11-.29-.16-.62-.16-1s.05-.7.15-.99c.1-.29.25-.54.43-.74.18-.2.4-.36.66-.46.26-.11.54-.16.85-.16.26,0,.47.03.65.08.18.05.32.12.44.18.12.07.21.13.28.18.07.05.13.08.18.08.04,0,.08,0,.11-.03.03-.02.05-.04.06-.07l.27-.37c-.25-.23-.53-.42-.86-.55-.32-.14-.7-.2-1.12-.2s-.83.07-1.19.22c-.36.15-.67.36-.92.63-.26.27-.46.59-.6.97-.14.38-.21.79-.21,1.24s.07.86.2,1.24.33.7.57.97c.25.27.54.48.9.62.35.15.74.22,1.17.22.49,0,.92-.08,1.26-.24.35-.16.65-.38.89-.66l-.32-.35s-.07-.05-.12-.05-.09.02-.14.06M167.72,43.41v-2.04h2.32v-.63h-2.32v-1.98h2.87v-.66h-3.68v5.97h3.68v-.66s-2.87,0-2.87,0ZM156.01,38.1v5.97h.8v-2.23h.96c.36,0,.68-.05.96-.14.28-.09.51-.22.7-.39.19-.17.33-.37.43-.6.1-.23.15-.48.15-.76s-.04-.53-.13-.76c-.09-.23-.23-.42-.41-.58-.18-.16-.41-.29-.69-.37-.28-.09-.61-.13-.99-.13h-1.76ZM156.82,41.19v-2.46h.96c.48,0,.83.11,1.07.32.24.21.35.51.35.89,0,.18-.03.35-.09.5-.06.15-.15.28-.27.39-.12.11-.27.19-.45.26-.18.06-.38.09-.61.09h-.96ZM148.84,38.65c-.21-.2-.45-.35-.72-.46-.27-.11-.58-.16-.91-.16-.3,0-.56.05-.79.14-.23.09-.42.21-.58.37-.16.15-.28.33-.36.53s-.12.4-.12.61c0,.26.04.49.12.67.08.18.19.33.32.45.13.12.29.22.46.29.17.08.35.14.52.2.18.06.35.11.53.17.17.06.32.12.46.2.13.08.24.17.32.29s.12.26.12.44c0,.16-.03.31-.08.45-.05.13-.13.25-.24.34-.1.09-.23.17-.38.22-.15.05-.32.08-.51.08-.15,0-.29-.01-.41-.04-.12-.03-.23-.07-.33-.11-.1-.04-.18-.09-.26-.14-.08-.05-.14-.1-.2-.15-.06-.05-.11-.08-.16-.11-.05-.03-.09-.04-.12-.04-.04,0-.07.01-.11.03s-.06.05-.08.08l-.23.38c.23.24.5.43.81.57.32.14.67.21,1.06.21.32,0,.6-.05.85-.15.25-.1.46-.23.63-.4.17-.17.3-.37.39-.6.09-.23.13-.47.13-.74,0-.25-.04-.46-.12-.62-.08-.17-.19-.31-.33-.43-.13-.12-.29-.21-.46-.29-.17-.08-.35-.14-.52-.21-.18-.06-.35-.12-.53-.18-.17-.06-.32-.12-.46-.2-.14-.08-.24-.17-.33-.28-.08-.11-.12-.25-.12-.41,0-.13.02-.25.07-.36.05-.11.12-.21.21-.29.09-.08.21-.15.35-.2.14-.05.3-.07.48-.07.19,0,.36.02.49.07.14.05.25.1.35.16.1.06.18.11.24.16.06.05.12.07.17.07.04,0,.08-.01.11-.03.03-.02.06-.05.08-.09l.2-.38ZM127.66,43.41v-2.04h2.32v-.63h-2.32v-1.98h2.87v-.66h-3.68v5.97h3.68v-.66s-2.87,0-2.87,0ZM118.41,41.7c-.07-.11-.16-.2-.27-.25.23-.05.44-.13.62-.23.18-.1.34-.23.46-.37.13-.14.22-.31.29-.49.07-.18.1-.38.1-.59,0-.25-.04-.48-.13-.69s-.22-.38-.4-.52c-.18-.14-.41-.26-.68-.33-.28-.08-.6-.11-.98-.11h-1.69v5.97h.8v-2.49h.61c.11,0,.2.01.25.04.05.03.11.08.15.14l1.55,2.13c.07.11.18.17.32.17h.72l-1.74-2.37ZM116.54,40.99v-2.25h.88c.47,0,.82.09,1.05.27.23.18.35.45.35.8,0,.18-.03.33-.09.48-.06.14-.15.27-.27.37-.12.1-.27.18-.45.24-.18.06-.39.09-.62.09h-.85ZM106.67,38.1h-.82l-2.39,5.97h.62c.07,0,.13-.02.18-.06.05-.04.08-.08.1-.13l.56-1.44h2.68l.56,1.44c.02.05.06.1.1.14.04.04.1.05.18.05h.62l-2.39-5.97ZM105.14,41.85l.94-2.42c.06-.15.12-.34.18-.56.03.11.06.21.09.31.03.1.06.18.09.25l.94,2.43h-2.23ZM96.79,42.9c-.1.1-.21.18-.31.24-.1.07-.22.12-.34.17-.12.05-.25.08-.4.1-.14.02-.3.03-.48.03-.29,0-.56-.05-.81-.16-.25-.11-.47-.26-.65-.46-.18-.2-.33-.45-.44-.74-.11-.29-.16-.62-.16-1s.05-.7.15-.99c.1-.29.25-.54.43-.74.19-.2.4-.36.66-.46.25-.11.54-.16.85-.16.25,0,.47.03.65.08.18.05.32.12.44.18.12.07.21.13.28.18.07.05.13.08.18.08.05,0,.08,0,.11-.03.03-.02.05-.04.06-.07l.27-.37c-.25-.23-.53-.42-.86-.55-.32-.14-.7-.2-1.12-.2s-.83.07-1.19.22c-.36.15-.67.36-.92.63-.26.27-.46.59-.6.97s-.21.79-.21,1.24.07.86.2,1.24c.14.38.33.7.57.97.25.27.55.48.9.62.35.15.74.22,1.17.22.49,0,.92-.08,1.26-.24.35-.16.65-.38.89-.66l-.32-.35s-.07-.05-.12-.05c-.05,0-.09.02-.14.06M76.58,38.1v4.23c0,.06,0,.13,0,.19s0,.14.01.21l-3.45-4.49s-.04-.05-.06-.07c-.02-.02-.04-.03-.06-.04-.02,0-.04-.02-.07-.02s-.06,0-.09,0h-.42v5.97h.71v-4.25c0-.06,0-.12,0-.19,0-.07,0-.14-.01-.21l3.45,4.5c.04.05.08.09.13.11s.1.03.16.03h.4v-5.97h-.71ZM64.01,41.7c-.08-.11-.16-.2-.27-.25.23-.05.44-.13.62-.23.18-.1.34-.23.46-.37.13-.14.22-.31.29-.49.07-.18.1-.38.1-.59,0-.25-.04-.48-.13-.69-.09-.2-.22-.38-.4-.52-.18-.14-.41-.26-.68-.33-.28-.08-.6-.11-.98-.11h-1.69v5.97h.8v-2.49h.61c.11,0,.2.01.25.04.05.03.11.08.15.14l1.55,2.13c.07.11.18.17.32.17h.72l-1.74-2.37ZM62.14,40.99v-2.25h.88c.47,0,.82.09,1.05.27.23.18.35.45.35.8,0,.18-.03.33-.09.48-.06.14-.15.27-.27.37-.12.1-.27.18-.45.24-.18.06-.38.09-.62.09h-.85ZM53.31,42.07c-.1.29-.24.54-.42.74-.18.2-.41.36-.67.46-.26.11-.55.16-.88.16s-.61-.05-.87-.16c-.26-.11-.48-.26-.67-.46-.18-.2-.33-.45-.43-.74-.1-.29-.15-.62-.15-.98s.05-.7.15-.99c.1-.29.24-.54.43-.74.19-.2.41-.36.67-.46.26-.11.55-.16.87-.16s.61.05.88.16c.26.11.48.26.67.46.18.2.33.45.42.74.1.29.15.62.15.99s-.05.69-.15.98M54.07,39.85c-.14-.37-.34-.7-.6-.97-.26-.27-.57-.48-.93-.63-.36-.15-.76-.22-1.2-.22s-.84.07-1.2.22-.67.36-.93.63c-.26.27-.46.59-.6.97-.14.37-.21.78-.21,1.23s.07.86.21,1.23c.14.37.34.7.6.96.26.27.57.48.93.63.36.15.76.22,1.2.22s.84-.07,1.2-.22c.36-.15.67-.36.93-.63.26-.27.46-.59.6-.96.14-.37.21-.78.21-1.23s-.07-.86-.21-1.23M37.49,38.1v5.97h2.11c.33,0,.63-.04.89-.12.26-.08.48-.2.66-.35.18-.15.32-.33.41-.54.09-.21.14-.44.14-.69,0-.37-.11-.67-.33-.9-.22-.23-.55-.38-.99-.47.19-.06.35-.13.49-.23.14-.09.26-.2.35-.31.09-.12.16-.24.21-.38.05-.13.07-.28.07-.42,0-.24-.04-.46-.12-.65-.08-.19-.21-.36-.38-.49-.17-.13-.39-.24-.65-.31-.27-.07-.58-.11-.95-.11h-1.9ZM39.39,38.73c.44,0,.77.08.98.24.21.16.32.42.32.77,0,.15-.03.29-.08.41-.05.13-.13.23-.24.32-.11.09-.25.16-.42.21s-.37.08-.59.08h-1.07v-2.04h1.1ZM38.29,43.42v-2.08h1.29c.44,0,.77.09.99.27.22.18.33.42.33.73,0,.16-.02.3-.07.44-.05.13-.13.24-.24.34-.11.1-.24.17-.41.22-.17.05-.36.08-.6.08h-1.29ZM30.07,38.1c-.07,0-.13.02-.18.06-.05.04-.08.08-.09.13l-1.24,4.15c-.02.07-.04.15-.05.23-.02.08-.03.17-.05.26-.02-.09-.04-.18-.06-.26-.02-.08-.04-.16-.07-.23l-1.4-4.15c-.02-.06-.05-.1-.1-.14-.04-.04-.1-.05-.17-.05h-.23c-.07,0-.13.02-.18.06-.05.04-.08.08-.1.13l-1.4,4.15c-.02.07-.05.15-.07.24-.02.09-.04.18-.06.28-.02-.1-.03-.19-.05-.27-.02-.09-.04-.17-.06-.24l-1.23-4.15c-.01-.06-.05-.1-.09-.14-.05-.04-.11-.05-.18-.05h-.67l1.86,5.97h.73l1.52-4.55s.03-.09.04-.14c.01-.05.03-.1.04-.16.01.06.03.11.04.16.01.05.02.1.04.14l1.51,4.55h.73l1.86-5.97h-.63ZM13.07,43.41v-2.04h2.32v-.63h-2.32v-1.98h2.87v-.66h-3.68v5.97h3.68v-.66s-2.87,0-2.87,0ZM4.13,38.1v4.23c0,.06,0,.13,0,.19s0,.14.01.21l-3.45-4.49s-.04-.05-.06-.07c-.02-.02-.04-.03-.06-.04-.02,0-.04-.02-.07-.02-.03,0-.06,0-.09,0H0v5.97h.71v-4.25c0-.06,0-.12,0-.19,0-.07,0-.14-.01-.21l3.45,4.5c.04.05.08.09.13.11.04.02.1.03.16.03h.4v-5.97h-.71Z"/>
      <path class="cls-3" d="M195.45,25.71l2.31-3.12c1.05-1.44,2.16-2.71,3.33-3.83,1.16-1.11,2.33-2.1,3.49-2.96,1.07-.79,1.86-1.19,2.34-1.19.2,0,.3.13.3.39,0,.43-.54,1.68-1.61,3.76-1.08,2.1-1.61,3.67-1.61,4.7,0,.34.1.62.3.82.2.2.52.31.96.31.94,0,1.42-.21,1.42-.64,0-.34-.19-.51-.56-.51-.15,0-.3.03-.44.08-.14.05-.25.08-.31.08-.2,0-.3-.14-.3-.42,0-.6.56-2.04,1.68-4.31,1.12-2.25,1.68-3.7,1.68-4.34,0-.71-.38-1.06-1.15-1.06-1.12,0-2.72.89-4.81,2.67-.7.6-1.4,1.23-2.08,1.9-.68.67-1.35,1.37-2.01,2.12.35-.6.79-1.46,1.32-2.57.31-.62.56-1.18.76-1.67.2-.49.3-.81.3-.97,0-.43-.21-.64-.63-.64-.31,0-.46.15-.46.45,0,.28-.64,1.69-1.91,4.22l-2.96,5.82c-.07.11-.14.24-.23.4-.09.16-.13.3-.13.4,0,.28.18.42.53.42.22,0,.4-.1.53-.29M186.23,22.27c0-.69.2-1.46.59-2.33.39-.87.91-1.7,1.53-2.49.62-.79,1.29-1.45,2.01-1.96.71-.51,1.39-.77,2.02-.77.44,0,.8.14,1.09.42.28.28.43.67.43,1.16,0,.84-.14,1.68-.43,2.54-.29.86-.7,1.66-1.24,2.4-.54.74-1.17,1.36-1.89,1.85-.72.49-1.52.79-2.37.9-.02.02-.1.03-.23.03-1.01,0-1.51-.58-1.51-1.74M190.48,24.26c.86-.51,1.62-1.19,2.31-2.03.68-.84,1.22-1.75,1.61-2.75.4-1,.59-1.98.59-2.94,0-.73-.19-1.39-.56-2-.37-.6-.97-.9-1.78-.9-.92,0-1.83.27-2.72.81-.89.54-1.7,1.23-2.42,2.07-.73.85-1.31,1.77-1.75,2.75-.44.99-.66,1.93-.66,2.83,0,1.95.89,2.93,2.67,2.93.94,0,1.84-.26,2.7-.77M159.92,26.16c.97-1.16,1.66-2.03,2.07-2.61,5.01-6.24,8.49-9.36,10.44-9.36.48,0,.72.11.72.32,0,.47-.62,1.91-1.84,4.31-1.23,2.4-1.84,3.94-1.84,4.6,0,.3.19.45.56.45.2,0,.37-.12.53-.35.22-.3.49-.65.81-1.06.32-.41.69-.83,1.1-1.25.22-.24.5-.54.86-.9.35-.36.8-.82,1.35-1.35l4.71-4.63-1.75,4.05c-.35.84-.61,1.59-.79,2.27-.18.67-.26,1.26-.26,1.75,0,1.27.21,2.09.64,2.48.43.39.96.58,1.6.58.68,0,1.32-.13,1.91-.39.59-.26,1.1-.5,1.51-.74.64-.39,1.31-.88,2.01-1.5.7-.61,1.49-1.34,2.37-2.2.31-.3.46-.57.46-.8,0-.26-.16-.39-.49-.39-.18,0-.31.04-.4.13-.7.69-1.44,1.37-2.21,2.04-.77.68-1.51,1.24-2.21,1.69-.35.24-.8.47-1.35.71-.55.24-1.05.35-1.51.35-.26,0-.53-.12-.79-.37-.26-.25-.4-.64-.4-1.17,0-.43.08-.99.23-1.67.15-.69.41-1.49.76-2.41.31-.82.58-1.55.82-2.2.24-.65.51-1.22.79-1.69.2-.32.3-.59.3-.8,0-.28-.09-.54-.26-.79-.18-.25-.39-.37-.66-.37-.2,0-.45.14-.76.42-1.21,1.14-2.41,2.29-3.61,3.46-1.2,1.17-2.38,2.33-3.54,3.49,1.52-2.55,2.27-4.34,2.27-5.37,0-.43-.12-.82-.36-1.17-.24-.35-.58-.53-1.02-.53-2.33,0-5.79,2.83-10.38,8.49l1.68-3.73c.42-.92.72-1.68.91-2.27.19-.59.28-1.02.28-1.3,0-.34-.18-.51-.53-.51s-.53.17-.53.51c0,.24-.15.76-.45,1.58-.3.81-.78,1.92-1.47,3.31l-1.68,3.44c-.48,1.01-.86,1.77-1.12,2.28-.26.51-.4.78-.4.8,0,.34.19.51.56.51.15,0,.26-.04.33-.13M156.62,24.9c.88-.43,1.68-.9,2.4-1.42.46-.34.94-.74,1.45-1.19.51-.45,1.05-.97,1.65-1.55.31-.3.46-.57.46-.8,0-.26-.16-.39-.49-.39-.18,0-.31.04-.39.13-.44.41-.97.89-1.6,1.45-.63.56-1.29,1.1-1.99,1.62-.7.53-1.39.96-2.07,1.3-.68.34-1.29.51-1.84.51-.29,0-.47-.04-.54-.13-.08-.08-.12-.21-.12-.39,0-.39.13-.94.4-1.67.24-.73.47-1.25.69-1.58.09-.13.27-.37.56-.72.29-.35.58-.74.89-1.14.31-.41.55-.73.73-.97.44-.64.85-1.26,1.22-1.87.37-.6.56-1.01.56-1.22,0-.34-.2-.51-.59-.51-.29,0-.67.26-1.14.79s-.96,1.2-1.46,2.01c-.51.82-.98,1.67-1.43,2.57-.45.9-.82,1.74-1.1,2.53-.29.78-.43,1.4-.43,1.85s.14.83.41,1.06c.27.24.72.35,1.33.35.77,0,1.59-.21,2.47-.64M160.1,12.4c.08-.07.13-.16.15-.24l.72-1c.09-.13.31-.3.66-.51.24-.17.46-.36.64-.56.19-.2.28-.38.28-.53,0-.41-.23-.61-.69-.61-.18,0-.37.05-.58.16-.21.11-.5.37-.87.77-.11.11-.26.31-.46.61-.2.3-.37.6-.53.88-.15.29-.23.49-.23.6,0,.36.19.55.56.55.15,0,.27-.04.35-.11M148.78,23.71c1.21-1.03,1.81-2.03,1.81-2.99,0-.41-.12-.78-.36-1.11-.24-.33-.68-.59-1.32-.79l-2.11-.64c-.88-.26-1.32-.6-1.32-1.03s.18-.83.53-1.19c.35-.36.79-.66,1.33-.89.54-.22,1.08-.34,1.63-.34,1.01,0,1.51.32,1.51.97,0,.15-.06.31-.18.47-.12.16-.18.3-.18.4,0,.3.19.45.56.45.24,0,.46-.14.64-.42.19-.28.28-.58.28-.9,0-.56-.26-1-.79-1.34-.53-.33-1.14-.5-1.85-.5s-1.43.15-2.17.45c-.75.3-1.37.71-1.86,1.22-.49.52-.74,1.09-.74,1.74,0,.34.12.66.36.93.24.28.64.5,1.19.68l2.17.64c.46.13.8.32,1.01.58.21.26.31.55.31.87,0,.47-.2.97-.59,1.48-.4.51-.9,1-1.5,1.45-.6.45-1.24.82-1.91,1.09-.67.28-1.29.42-1.86.42-.68,0-1.02-.19-1.02-.58,0-.41.28-.94.84-1.59s1.34-1.22,2.35-1.69c.24-.13.36-.25.36-.35,0-.13-.09-.19-.26-.19-.15,0-.35.03-.58.1-.23.06-.41.13-.54.19-.44.22-.91.53-1.42.93-.5.41-.94.86-1.3,1.35-.36.49-.54.99-.54,1.48,0,.79.61,1.19,1.84,1.19,1.82,0,3.71-.85,5.67-2.54M130.77,25.42c.24-.17.36-.42.36-.74,0-.36-.13-.55-.4-.55-.04,0-.32.13-.82.39-.51.28-1,.42-1.48.42-1.36,0-2.04-.81-2.04-2.44,0-.62.1-1.29.3-1.99.7-2.47,1.68-4.93,2.95-7.4,1.26-2.47,2.89-4.88,4.89-7.24l2.31-2.73c1.23-1.46,1.84-2.37,1.84-2.74,0-.26-.24-.39-.72-.39-.75,0-2.06,1.31-3.95,3.92-1.19,1.63-2.27,3.29-3.26,4.97-.99,1.68-1.91,3.39-2.77,5.13-1.1,2.3-1.88,4.31-2.34,6.05-.26,1.03-.39,1.91-.39,2.64,0,1.01.27,1.82.81,2.43.54.61,1.31.92,2.32.92.86,0,1.66-.22,2.4-.64M116.01,18.4c.31-.49.64-.95,1-1.37.36-.42.83-.89,1.4-1.4,1.16-1.05,2.18-1.58,3.06-1.58.46,0,.69.18.69.55,0,.81-.64,1.68-1.91,2.61-.57.41-1.18.72-1.81.93-.64.22-1.31.32-2.01.32-.15,0-.3-.02-.43-.07M119.7,25.16c1.14-.41,2.19-.98,3.16-1.7.9-.66,1.56-1.18,1.98-1.56.42-.38.81-.73,1.19-1.08.44-.43.66-.76.66-1,0-.13-.05-.23-.16-.29-.11-.07-.22-.1-.33-.1s-.23.04-.36.13c-.46.41-.89.79-1.28,1.16-.4.37-.99.85-1.78,1.45-1.27.99-2.37,1.66-3.29,2.01-.92.35-1.9.53-2.93.53-1.27,0-1.91-.71-1.91-2.12,0-.47.09-1.03.26-1.67.18-.64.37-1.17.59-1.58.15.04.32.08.51.11.19.03.4.05.64.05,1.38,0,2.79-.47,4.22-1.42,1.54-1.05,2.3-2.22,2.3-3.51,0-1.03-.56-1.54-1.68-1.54-.68,0-1.38.2-2.11.61-.72.41-1.42.92-2.07,1.54-.44.41-.85.83-1.22,1.27-.37.44-.7.89-.99,1.34-1.05,1.63-1.58,3.22-1.58,4.76,0,.9.26,1.66.79,2.28.53.62,1.25.93,2.17.93,1.01,0,2.09-.2,3.23-.61M104.42,18.4c.31-.49.64-.95,1.01-1.37.36-.42.83-.89,1.4-1.4,1.16-1.05,2.18-1.58,3.06-1.58.46,0,.69.18.69.55,0,.81-.64,1.68-1.91,2.61-.57.41-1.18.72-1.81.93-.64.22-1.31.32-2.01.32-.15,0-.3-.02-.43-.07M108.11,25.16c1.14-.41,2.2-.98,3.16-1.7.9-.66,1.56-1.18,1.98-1.56.42-.38.81-.73,1.18-1.08.44-.43.66-.76.66-1,0-.13-.05-.23-.16-.29-.11-.07-.22-.1-.33-.1s-.23.04-.36.13c-.46.41-.89.79-1.29,1.16-.4.37-.99.85-1.78,1.45-1.27.99-2.37,1.66-3.29,2.01-.92.35-1.9.53-2.93.53-1.27,0-1.91-.71-1.91-2.12,0-.47.09-1.03.26-1.67.17-.64.37-1.17.59-1.58.15.04.32.08.51.11.19.03.4.05.64.05,1.38,0,2.79-.47,4.22-1.42,1.54-1.05,2.31-2.22,2.31-3.51,0-1.03-.56-1.54-1.68-1.54-.68,0-1.38.2-2.11.61-.72.41-1.42.92-2.07,1.54-.44.41-.85.83-1.22,1.27-.37.44-.7.89-.99,1.34-1.05,1.63-1.58,3.22-1.58,4.76,0,.9.26,1.66.79,2.28.53.62,1.25.93,2.17.93,1.01,0,2.08-.2,3.23-.61M76.39,26.16c.97-1.16,1.66-2.03,2.07-2.61,5.01-6.24,8.49-9.36,10.44-9.36.48,0,.73.11.73.32,0,.47-.62,1.91-1.85,4.31s-1.84,3.94-1.84,4.6c0,.3.19.45.56.45.2,0,.37-.12.53-.35.22-.3.49-.65.81-1.06.32-.41.69-.83,1.1-1.25.22-.24.51-.54.86-.9s.8-.82,1.35-1.35l4.71-4.63-1.75,4.05c-.35.84-.62,1.59-.79,2.27-.18.67-.26,1.26-.26,1.75,0,1.27.21,2.09.64,2.48.43.39.96.58,1.6.58.68,0,1.32-.13,1.91-.39.59-.26,1.1-.5,1.51-.74.64-.39,1.31-.88,2.01-1.5.7-.61,1.49-1.34,2.37-2.2.31-.3.46-.57.46-.8,0-.26-.17-.39-.49-.39-.18,0-.31.04-.4.13-.7.69-1.44,1.37-2.21,2.04-.77.68-1.5,1.24-2.21,1.69-.35.24-.8.47-1.35.71-.55.24-1.05.35-1.51.35-.26,0-.53-.12-.79-.37-.26-.25-.39-.64-.39-1.17,0-.43.08-.99.23-1.67.15-.69.41-1.49.76-2.41.31-.82.58-1.55.82-2.2.24-.65.5-1.22.79-1.69.2-.32.3-.59.3-.8,0-.28-.09-.54-.26-.79-.18-.25-.4-.37-.66-.37-.2,0-.45.14-.76.42-1.21,1.14-2.41,2.29-3.61,3.46-1.2,1.17-2.38,2.33-3.54,3.49,1.51-2.55,2.27-4.34,2.27-5.37,0-.43-.12-.82-.36-1.17-.24-.35-.58-.53-1.02-.53-2.33,0-5.79,2.83-10.38,8.49l1.68-3.73c.42-.92.72-1.68.91-2.27.19-.59.28-1.02.28-1.3,0-.34-.18-.51-.53-.51s-.53.17-.53.51c0,.24-.15.76-.44,1.58-.3.81-.79,1.92-1.46,3.31l-1.68,3.44c-.48,1.01-.86,1.77-1.12,2.28-.26.51-.4.78-.4.8,0,.34.19.51.56.51.15,0,.26-.04.33-.13M69.21,22.72c-.11.28-.16.63-.16,1.06,0,1.11.54,1.67,1.61,1.67.79,0,1.49-.13,2.11-.39.61-.26,1.13-.5,1.55-.74.64-.39,1.31-.88,2.01-1.5.7-.61,1.49-1.34,2.37-2.2.31-.3.46-.57.46-.8,0-.26-.17-.39-.49-.39-.18,0-.31.04-.4.13-.7.69-1.44,1.37-2.21,2.04-.77.68-1.5,1.24-2.21,1.69-.35.24-.8.47-1.35.71-.55.24-1.05.35-1.51.35-.55,0-.82-.28-.82-.84,0-.77.42-1.76,1.25-2.96l1.25-1.83c0-.34-.18-.51-.53-.51-.15,0-.28.05-.39.16-.31.34-.58.65-.82.93-.24.28-.44.51-.59.68-1.01,1.22-2,2.19-2.96,2.9-.48.36-1.05.72-1.7,1.06-.65.34-1.26.51-1.83.51-.66,0-.99-.29-.99-.87s.15-1.24.44-1.91c.3-.68.67-1.35,1.14-2.01.46-.66.93-1.24,1.42-1.74,2.02-1.99,3.7-2.99,5.04-2.99.83,0,1.25.3,1.25.9,0,.19-.04.37-.11.53-.08.16-.11.32-.11.47,0,.36.2.55.59.55.44,0,.66-.44.66-1.32,0-1.35-.7-2.03-2.11-2.03-.79,0-1.61.21-2.47.63-.86.42-1.69.98-2.5,1.67-.81.7-1.55,1.47-2.21,2.32-.66.85-1.18,1.72-1.56,2.61-.39.89-.58,1.72-.58,2.49,0,1.18.64,1.77,1.91,1.77,1.71,0,3.57-.93,5.57-2.8M47.97,25.16l.4-1.13c.33-.94.77-1.82,1.33-2.64.56-.82,1.19-1.59,1.89-2.32,1.23-1.26,2.39-2.21,3.47-2.85s2.04-.95,2.85-.95c.46,0,.69.18.69.55,0,.26-.09.63-.26,1.13-.18.49-.45,1.11-.82,1.83l-1.51,2.93c-.24.47-.42.85-.53,1.13-.11.28-.16.57-.16.87,0,.79.44,1.19,1.32,1.19,1.16,0,2.27-.35,3.33-1.06s2.32-1.78,3.79-3.22c.31-.3.46-.57.46-.8,0-.26-.17-.39-.49-.39-.18,0-.31.04-.4.13-.72.69-1.47,1.37-2.24,2.06-.77.69-1.52,1.25-2.24,1.69-.72.44-1.4.66-2.01.66-.26,0-.4-.12-.4-.35,0-.45.56-1.65,1.68-3.6,1.12-1.97,1.68-3.38,1.68-4.22,0-.43-.15-.79-.46-1.09-.31-.3-.71-.45-1.22-.45-.92,0-2.06.35-3.41,1.05-1.35.7-2.65,1.72-3.9,3.07-.53.54-.96,1.02-1.28,1.45l1.25-3.02c.17-.43.41-.93.69-1.5.29-.57.58-1.12.87-1.66.3-.53.57-.94.81-1.22.29-.3.66-.75,1.14-1.34.47-.59.98-1.24,1.51-1.95.54-.71,1.04-1.41,1.52-2.11.47-.7.86-1.31,1.15-1.83.3-.53.44-.88.44-1.08,0-.3-.15-.45-.46-.45-.79,0-2.81,2.68-6.06,8.04-.33.54-.68,1.16-1.05,1.88-.37.72-.74,1.45-1.09,2.2-.61,1.35-1.19,2.67-1.73,3.94-.54,1.28-.97,2.4-1.3,3.38-.33.98-.49,1.69-.49,2.14,0,.34.18.51.53.51.33,0,.57-.2.73-.61M45,26.22c0-.41-.18-.94-.53-1.61-.35-.66-.8-1.39-1.33-2.17-.54-.78-1.12-1.54-1.73-2.28-.61-.74-1.19-1.39-1.71-1.95,1.03-.56,1.93-1.05,2.69-1.48.76-.43,1.38-.79,1.86-1.09.57-.3,1.14-.59,1.7-.87.56-.28,1.32-.64,2.29-1.09.26-.11.4-.28.4-.51,0-.39-.18-.58-.53-.58-.4,0-3.25,1.51-8.56,4.54l2.37-4.6c.11-.17.32-.48.64-.92.32-.44.66-.92,1.04-1.45.37-.52.72-1.01,1.05-1.46.33-.45.56-.77.69-.96,1.67-2.4,2.5-3.88,2.5-4.44,0-.41-.2-.61-.59-.61-.22,0-.48.17-.77.51-.3.34-.6.73-.91,1.16-1.34,1.82-3.12,4.85-5.34,9.07-1.16,2.21-2.2,4.25-3.11,6.11-.91,1.87-1.65,3.47-2.22,4.83-.09.22-.18.42-.28.63-.1.2-.15.37-.15.5,0,.3.19.45.56.45.22,0,.37-.11.46-.32.35-.73.68-1.43.99-2.11.31-.68.65-1.4,1.02-2.17.37-.77.8-1.64,1.28-2.61.88.94,1.77,1.98,2.67,3.1.9,1.13,1.59,2.26,2.08,3.4l.46,1.09c.11.26.27.39.49.39.35,0,.53-.16.53-.48"/>
    </g>
  </g>
</svg>